<?xml version="1.0" encoding="utf-8" standalone="no"?>
<!DOCTYPE svg PUBLIC "-//W3C//DTD SVG 1.1//EN"
  "http://www.w3.org/Graphics/SVG/1.1/DTD/svg11.dtd">
<svg xmlns:xlink="http://www.w3.org/1999/xlink" width="720pt" height="288pt" viewBox="0 0 720 288" xmlns="http://www.w3.org/2000/svg" version="1.1">
 <metadata>
  <rdf:RDF xmlns:dc="http://purl.org/dc/elements/1.1/" xmlns:cc="http://creativecommons.org/ns#" xmlns:rdf="http://www.w3.org/1999/02/22-rdf-syntax-ns#">
   <cc:Work>
    <dc:type rdf:resource="http://purl.org/dc/dcmitype/StillImage"/>
    <dc:date>2023-06-02T10:31:44.190479</dc:date>
    <dc:format>image/svg+xml</dc:format>
    <dc:creator>
     <cc:Agent>
      <dc:title>Matplotlib v3.7.0, https://matplotlib.org/</dc:title>
     </cc:Agent>
    </dc:creator>
   </cc:Work>
  </rdf:RDF>
 </metadata>
 <defs>
  <style type="text/css">*{stroke-linejoin: round; stroke-linecap: butt}</style>
 </defs>
 <g id="figure_1">
  <g id="patch_1">
   <path d="M 0 288 
L 720 288 
L 720 0 
L 0 0 
z
" style="fill: #ffffff"/>
  </g>
  <g id="axes_1">
   <g id="patch_2">
    <path d="M 158.924 212.843834 
L 704.88 212.843834 
L 704.88 15.12 
L 158.924 15.12 
z
" style="fill: #ffffff"/>
   </g>
   <g id="matplotlib.axis_1">
    <g id="xtick_1">
     <g id="line2d_1">
      <path d="M 183.740182 212.843834 
L 183.740182 15.12 
" clip-path="url(#p1fd1ad5732)" style="fill: none; stroke-dasharray: 2.96,1.28; stroke-dashoffset: 0; stroke: #b0b0b0; stroke-width: 0.8"/>
     </g>
     <g id="line2d_2">
      <defs>
       <path id="mb54610dd2c" d="M 0 0 
L 0 3.5 
" style="stroke: #000000; stroke-width: 0.8"/>
      </defs>
      <g>
       <use xlink:href="#mb54610dd2c" x="183.740182" y="212.843834" style="stroke: #000000; stroke-width: 0.8"/>
      </g>
     </g>
     <g id="text_1">
      <!-- 0.05 -->
      <g transform="translate(175.450902 249.407748) rotate(-45) scale(0.14 -0.14)">
       <defs>
        <path id="DejaVuSans-30" d="M 2034 4250 
Q 1547 4250 1301 3770 
Q 1056 3291 1056 2328 
Q 1056 1369 1301 889 
Q 1547 409 2034 409 
Q 2525 409 2770 889 
Q 3016 1369 3016 2328 
Q 3016 3291 2770 3770 
Q 2525 4250 2034 4250 
z
M 2034 4750 
Q 2819 4750 3233 4129 
Q 3647 3509 3647 2328 
Q 3647 1150 3233 529 
Q 2819 -91 2034 -91 
Q 1250 -91 836 529 
Q 422 1150 422 2328 
Q 422 3509 836 4129 
Q 1250 4750 2034 4750 
z
" transform="scale(0.015625)"/>
        <path id="DejaVuSans-2e" d="M 684 794 
L 1344 794 
L 1344 0 
L 684 0 
L 684 794 
z
" transform="scale(0.015625)"/>
        <path id="DejaVuSans-35" d="M 691 4666 
L 3169 4666 
L 3169 4134 
L 1269 4134 
L 1269 2991 
Q 1406 3038 1543 3061 
Q 1681 3084 1819 3084 
Q 2600 3084 3056 2656 
Q 3513 2228 3513 1497 
Q 3513 744 3044 326 
Q 2575 -91 1722 -91 
Q 1428 -91 1123 -41 
Q 819 9 494 109 
L 494 744 
Q 775 591 1075 516 
Q 1375 441 1709 441 
Q 2250 441 2565 725 
Q 2881 1009 2881 1497 
Q 2881 1984 2565 2268 
Q 2250 2553 1709 2553 
Q 1456 2553 1204 2497 
Q 953 2441 691 2322 
L 691 4666 
z
" transform="scale(0.015625)"/>
       </defs>
       <use xlink:href="#DejaVuSans-30"/>
       <use xlink:href="#DejaVuSans-2e" x="63.623047"/>
       <use xlink:href="#DejaVuSans-30" x="95.410156"/>
       <use xlink:href="#DejaVuSans-35" x="159.033203"/>
      </g>
     </g>
    </g>
    <g id="xtick_2">
     <g id="line2d_3">
      <path d="M 238.887253 212.843834 
L 238.887253 15.12 
" clip-path="url(#p1fd1ad5732)" style="fill: none; stroke-dasharray: 2.96,1.28; stroke-dashoffset: 0; stroke: #b0b0b0; stroke-width: 0.8"/>
     </g>
     <g id="line2d_4">
      <g>
       <use xlink:href="#mb54610dd2c" x="238.887253" y="212.843834" style="stroke: #000000; stroke-width: 0.8"/>
      </g>
     </g>
     <g id="text_2">
      <!-- 0.1 -->
      <g transform="translate(233.747249 243.109194) rotate(-45) scale(0.14 -0.14)">
       <defs>
        <path id="DejaVuSans-31" d="M 794 531 
L 1825 531 
L 1825 4091 
L 703 3866 
L 703 4441 
L 1819 4666 
L 2450 4666 
L 2450 531 
L 3481 531 
L 3481 0 
L 794 0 
L 794 531 
z
" transform="scale(0.015625)"/>
       </defs>
       <use xlink:href="#DejaVuSans-30"/>
       <use xlink:href="#DejaVuSans-2e" x="63.623047"/>
       <use xlink:href="#DejaVuSans-31" x="95.410156"/>
      </g>
     </g>
    </g>
    <g id="xtick_3">
     <g id="line2d_5">
      <path d="M 294.034323 212.843834 
L 294.034323 15.12 
" clip-path="url(#p1fd1ad5732)" style="fill: none; stroke-dasharray: 2.96,1.28; stroke-dashoffset: 0; stroke: #b0b0b0; stroke-width: 0.8"/>
     </g>
     <g id="line2d_6">
      <g>
       <use xlink:href="#mb54610dd2c" x="294.034323" y="212.843834" style="stroke: #000000; stroke-width: 0.8"/>
      </g>
     </g>
     <g id="text_3">
      <!-- 0.15 -->
      <g transform="translate(285.745043 249.407748) rotate(-45) scale(0.14 -0.14)">
       <use xlink:href="#DejaVuSans-30"/>
       <use xlink:href="#DejaVuSans-2e" x="63.623047"/>
       <use xlink:href="#DejaVuSans-31" x="95.410156"/>
       <use xlink:href="#DejaVuSans-35" x="159.033203"/>
      </g>
     </g>
    </g>
    <g id="xtick_4">
     <g id="line2d_7">
      <path d="M 349.181394 212.843834 
L 349.181394 15.12 
" clip-path="url(#p1fd1ad5732)" style="fill: none; stroke-dasharray: 2.96,1.28; stroke-dashoffset: 0; stroke: #b0b0b0; stroke-width: 0.8"/>
     </g>
     <g id="line2d_8">
      <g>
       <use xlink:href="#mb54610dd2c" x="349.181394" y="212.843834" style="stroke: #000000; stroke-width: 0.8"/>
      </g>
     </g>
     <g id="text_4">
      <!-- 0.2 -->
      <g transform="translate(344.041391 243.109194) rotate(-45) scale(0.14 -0.14)">
       <defs>
        <path id="DejaVuSans-32" d="M 1228 531 
L 3431 531 
L 3431 0 
L 469 0 
L 469 531 
Q 828 903 1448 1529 
Q 2069 2156 2228 2338 
Q 2531 2678 2651 2914 
Q 2772 3150 2772 3378 
Q 2772 3750 2511 3984 
Q 2250 4219 1831 4219 
Q 1534 4219 1204 4116 
Q 875 4013 500 3803 
L 500 4441 
Q 881 4594 1212 4672 
Q 1544 4750 1819 4750 
Q 2544 4750 2975 4387 
Q 3406 4025 3406 3419 
Q 3406 3131 3298 2873 
Q 3191 2616 2906 2266 
Q 2828 2175 2409 1742 
Q 1991 1309 1228 531 
z
" transform="scale(0.015625)"/>
       </defs>
       <use xlink:href="#DejaVuSans-30"/>
       <use xlink:href="#DejaVuSans-2e" x="63.623047"/>
       <use xlink:href="#DejaVuSans-32" x="95.410156"/>
      </g>
     </g>
    </g>
    <g id="xtick_5">
     <g id="line2d_9">
      <path d="M 404.328465 212.843834 
L 404.328465 15.12 
" clip-path="url(#p1fd1ad5732)" style="fill: none; stroke-dasharray: 2.96,1.28; stroke-dashoffset: 0; stroke: #b0b0b0; stroke-width: 0.8"/>
     </g>
     <g id="line2d_10">
      <g>
       <use xlink:href="#mb54610dd2c" x="404.328465" y="212.843834" style="stroke: #000000; stroke-width: 0.8"/>
      </g>
     </g>
     <g id="text_5">
      <!-- 0.25 -->
      <g transform="translate(396.039184 249.407748) rotate(-45) scale(0.14 -0.14)">
       <use xlink:href="#DejaVuSans-30"/>
       <use xlink:href="#DejaVuSans-2e" x="63.623047"/>
       <use xlink:href="#DejaVuSans-32" x="95.410156"/>
       <use xlink:href="#DejaVuSans-35" x="159.033203"/>
      </g>
     </g>
    </g>
    <g id="xtick_6">
     <g id="line2d_11">
      <path d="M 459.475535 212.843834 
L 459.475535 15.12 
" clip-path="url(#p1fd1ad5732)" style="fill: none; stroke-dasharray: 2.96,1.28; stroke-dashoffset: 0; stroke: #b0b0b0; stroke-width: 0.8"/>
     </g>
     <g id="line2d_12">
      <g>
       <use xlink:href="#mb54610dd2c" x="459.475535" y="212.843834" style="stroke: #000000; stroke-width: 0.8"/>
      </g>
     </g>
     <g id="text_6">
      <!-- 0.3 -->
      <g transform="translate(454.335532 243.109194) rotate(-45) scale(0.14 -0.14)">
       <defs>
        <path id="DejaVuSans-33" d="M 2597 2516 
Q 3050 2419 3304 2112 
Q 3559 1806 3559 1356 
Q 3559 666 3084 287 
Q 2609 -91 1734 -91 
Q 1441 -91 1130 -33 
Q 819 25 488 141 
L 488 750 
Q 750 597 1062 519 
Q 1375 441 1716 441 
Q 2309 441 2620 675 
Q 2931 909 2931 1356 
Q 2931 1769 2642 2001 
Q 2353 2234 1838 2234 
L 1294 2234 
L 1294 2753 
L 1863 2753 
Q 2328 2753 2575 2939 
Q 2822 3125 2822 3475 
Q 2822 3834 2567 4026 
Q 2313 4219 1838 4219 
Q 1578 4219 1281 4162 
Q 984 4106 628 3988 
L 628 4550 
Q 988 4650 1302 4700 
Q 1616 4750 1894 4750 
Q 2613 4750 3031 4423 
Q 3450 4097 3450 3541 
Q 3450 3153 3228 2886 
Q 3006 2619 2597 2516 
z
" transform="scale(0.015625)"/>
       </defs>
       <use xlink:href="#DejaVuSans-30"/>
       <use xlink:href="#DejaVuSans-2e" x="63.623047"/>
       <use xlink:href="#DejaVuSans-33" x="95.410156"/>
      </g>
     </g>
    </g>
    <g id="xtick_7">
     <g id="line2d_13">
      <path d="M 514.622606 212.843834 
L 514.622606 15.12 
" clip-path="url(#p1fd1ad5732)" style="fill: none; stroke-dasharray: 2.96,1.28; stroke-dashoffset: 0; stroke: #b0b0b0; stroke-width: 0.8"/>
     </g>
     <g id="line2d_14">
      <g>
       <use xlink:href="#mb54610dd2c" x="514.622606" y="212.843834" style="stroke: #000000; stroke-width: 0.8"/>
      </g>
     </g>
     <g id="text_7">
      <!-- 0.35 -->
      <g transform="translate(506.333326 249.407748) rotate(-45) scale(0.14 -0.14)">
       <use xlink:href="#DejaVuSans-30"/>
       <use xlink:href="#DejaVuSans-2e" x="63.623047"/>
       <use xlink:href="#DejaVuSans-33" x="95.410156"/>
       <use xlink:href="#DejaVuSans-35" x="159.033203"/>
      </g>
     </g>
    </g>
    <g id="xtick_8">
     <g id="line2d_15">
      <path d="M 569.769677 212.843834 
L 569.769677 15.12 
" clip-path="url(#p1fd1ad5732)" style="fill: none; stroke-dasharray: 2.96,1.28; stroke-dashoffset: 0; stroke: #b0b0b0; stroke-width: 0.8"/>
     </g>
     <g id="line2d_16">
      <g>
       <use xlink:href="#mb54610dd2c" x="569.769677" y="212.843834" style="stroke: #000000; stroke-width: 0.8"/>
      </g>
     </g>
     <g id="text_8">
      <!-- 0.4 -->
      <g transform="translate(564.629673 243.109194) rotate(-45) scale(0.14 -0.14)">
       <defs>
        <path id="DejaVuSans-34" d="M 2419 4116 
L 825 1625 
L 2419 1625 
L 2419 4116 
z
M 2253 4666 
L 3047 4666 
L 3047 1625 
L 3713 1625 
L 3713 1100 
L 3047 1100 
L 3047 0 
L 2419 0 
L 2419 1100 
L 313 1100 
L 313 1709 
L 2253 4666 
z
" transform="scale(0.015625)"/>
       </defs>
       <use xlink:href="#DejaVuSans-30"/>
       <use xlink:href="#DejaVuSans-2e" x="63.623047"/>
       <use xlink:href="#DejaVuSans-34" x="95.410156"/>
      </g>
     </g>
    </g>
    <g id="xtick_9">
     <g id="line2d_17">
      <path d="M 624.916747 212.843834 
L 624.916747 15.12 
" clip-path="url(#p1fd1ad5732)" style="fill: none; stroke-dasharray: 2.96,1.28; stroke-dashoffset: 0; stroke: #b0b0b0; stroke-width: 0.8"/>
     </g>
     <g id="line2d_18">
      <g>
       <use xlink:href="#mb54610dd2c" x="624.916747" y="212.843834" style="stroke: #000000; stroke-width: 0.8"/>
      </g>
     </g>
     <g id="text_9">
      <!-- 0.45 -->
      <g transform="translate(616.627467 249.407748) rotate(-45) scale(0.14 -0.14)">
       <use xlink:href="#DejaVuSans-30"/>
       <use xlink:href="#DejaVuSans-2e" x="63.623047"/>
       <use xlink:href="#DejaVuSans-34" x="95.410156"/>
       <use xlink:href="#DejaVuSans-35" x="159.033203"/>
      </g>
     </g>
    </g>
    <g id="xtick_10">
     <g id="line2d_19">
      <path d="M 680.063818 212.843834 
L 680.063818 15.12 
" clip-path="url(#p1fd1ad5732)" style="fill: none; stroke-dasharray: 2.96,1.28; stroke-dashoffset: 0; stroke: #b0b0b0; stroke-width: 0.8"/>
     </g>
     <g id="line2d_20">
      <g>
       <use xlink:href="#mb54610dd2c" x="680.063818" y="212.843834" style="stroke: #000000; stroke-width: 0.8"/>
      </g>
     </g>
     <g id="text_10">
      <!-- 0.5 -->
      <g transform="translate(674.923815 243.109194) rotate(-45) scale(0.14 -0.14)">
       <use xlink:href="#DejaVuSans-30"/>
       <use xlink:href="#DejaVuSans-2e" x="63.623047"/>
       <use xlink:href="#DejaVuSans-35" x="95.410156"/>
      </g>
     </g>
    </g>
    <g id="text_11">
     <!-- maxClusterVelocityDifference parameter -->
     <g transform="translate(248.137469 269.143721) scale(0.18 -0.18)">
      <defs>
       <path id="DejaVuSans-6d" d="M 3328 2828 
Q 3544 3216 3844 3400 
Q 4144 3584 4550 3584 
Q 5097 3584 5394 3201 
Q 5691 2819 5691 2113 
L 5691 0 
L 5113 0 
L 5113 2094 
Q 5113 2597 4934 2840 
Q 4756 3084 4391 3084 
Q 3944 3084 3684 2787 
Q 3425 2491 3425 1978 
L 3425 0 
L 2847 0 
L 2847 2094 
Q 2847 2600 2669 2842 
Q 2491 3084 2119 3084 
Q 1678 3084 1418 2786 
Q 1159 2488 1159 1978 
L 1159 0 
L 581 0 
L 581 3500 
L 1159 3500 
L 1159 2956 
Q 1356 3278 1631 3431 
Q 1906 3584 2284 3584 
Q 2666 3584 2933 3390 
Q 3200 3197 3328 2828 
z
" transform="scale(0.015625)"/>
       <path id="DejaVuSans-61" d="M 2194 1759 
Q 1497 1759 1228 1600 
Q 959 1441 959 1056 
Q 959 750 1161 570 
Q 1363 391 1709 391 
Q 2188 391 2477 730 
Q 2766 1069 2766 1631 
L 2766 1759 
L 2194 1759 
z
M 3341 1997 
L 3341 0 
L 2766 0 
L 2766 531 
Q 2569 213 2275 61 
Q 1981 -91 1556 -91 
Q 1019 -91 701 211 
Q 384 513 384 1019 
Q 384 1609 779 1909 
Q 1175 2209 1959 2209 
L 2766 2209 
L 2766 2266 
Q 2766 2663 2505 2880 
Q 2244 3097 1772 3097 
Q 1472 3097 1187 3025 
Q 903 2953 641 2809 
L 641 3341 
Q 956 3463 1253 3523 
Q 1550 3584 1831 3584 
Q 2591 3584 2966 3190 
Q 3341 2797 3341 1997 
z
" transform="scale(0.015625)"/>
       <path id="DejaVuSans-78" d="M 3513 3500 
L 2247 1797 
L 3578 0 
L 2900 0 
L 1881 1375 
L 863 0 
L 184 0 
L 1544 1831 
L 300 3500 
L 978 3500 
L 1906 2253 
L 2834 3500 
L 3513 3500 
z
" transform="scale(0.015625)"/>
       <path id="DejaVuSans-43" d="M 4122 4306 
L 4122 3641 
Q 3803 3938 3442 4084 
Q 3081 4231 2675 4231 
Q 1875 4231 1450 3742 
Q 1025 3253 1025 2328 
Q 1025 1406 1450 917 
Q 1875 428 2675 428 
Q 3081 428 3442 575 
Q 3803 722 4122 1019 
L 4122 359 
Q 3791 134 3420 21 
Q 3050 -91 2638 -91 
Q 1578 -91 968 557 
Q 359 1206 359 2328 
Q 359 3453 968 4101 
Q 1578 4750 2638 4750 
Q 3056 4750 3426 4639 
Q 3797 4528 4122 4306 
z
" transform="scale(0.015625)"/>
       <path id="DejaVuSans-6c" d="M 603 4863 
L 1178 4863 
L 1178 0 
L 603 0 
L 603 4863 
z
" transform="scale(0.015625)"/>
       <path id="DejaVuSans-75" d="M 544 1381 
L 544 3500 
L 1119 3500 
L 1119 1403 
Q 1119 906 1312 657 
Q 1506 409 1894 409 
Q 2359 409 2629 706 
Q 2900 1003 2900 1516 
L 2900 3500 
L 3475 3500 
L 3475 0 
L 2900 0 
L 2900 538 
Q 2691 219 2414 64 
Q 2138 -91 1772 -91 
Q 1169 -91 856 284 
Q 544 659 544 1381 
z
M 1991 3584 
L 1991 3584 
z
" transform="scale(0.015625)"/>
       <path id="DejaVuSans-73" d="M 2834 3397 
L 2834 2853 
Q 2591 2978 2328 3040 
Q 2066 3103 1784 3103 
Q 1356 3103 1142 2972 
Q 928 2841 928 2578 
Q 928 2378 1081 2264 
Q 1234 2150 1697 2047 
L 1894 2003 
Q 2506 1872 2764 1633 
Q 3022 1394 3022 966 
Q 3022 478 2636 193 
Q 2250 -91 1575 -91 
Q 1294 -91 989 -36 
Q 684 19 347 128 
L 347 722 
Q 666 556 975 473 
Q 1284 391 1588 391 
Q 1994 391 2212 530 
Q 2431 669 2431 922 
Q 2431 1156 2273 1281 
Q 2116 1406 1581 1522 
L 1381 1569 
Q 847 1681 609 1914 
Q 372 2147 372 2553 
Q 372 3047 722 3315 
Q 1072 3584 1716 3584 
Q 2034 3584 2315 3537 
Q 2597 3491 2834 3397 
z
" transform="scale(0.015625)"/>
       <path id="DejaVuSans-74" d="M 1172 4494 
L 1172 3500 
L 2356 3500 
L 2356 3053 
L 1172 3053 
L 1172 1153 
Q 1172 725 1289 603 
Q 1406 481 1766 481 
L 2356 481 
L 2356 0 
L 1766 0 
Q 1100 0 847 248 
Q 594 497 594 1153 
L 594 3053 
L 172 3053 
L 172 3500 
L 594 3500 
L 594 4494 
L 1172 4494 
z
" transform="scale(0.015625)"/>
       <path id="DejaVuSans-65" d="M 3597 1894 
L 3597 1613 
L 953 1613 
Q 991 1019 1311 708 
Q 1631 397 2203 397 
Q 2534 397 2845 478 
Q 3156 559 3463 722 
L 3463 178 
Q 3153 47 2828 -22 
Q 2503 -91 2169 -91 
Q 1331 -91 842 396 
Q 353 884 353 1716 
Q 353 2575 817 3079 
Q 1281 3584 2069 3584 
Q 2775 3584 3186 3129 
Q 3597 2675 3597 1894 
z
M 3022 2063 
Q 3016 2534 2758 2815 
Q 2500 3097 2075 3097 
Q 1594 3097 1305 2825 
Q 1016 2553 972 2059 
L 3022 2063 
z
" transform="scale(0.015625)"/>
       <path id="DejaVuSans-72" d="M 2631 2963 
Q 2534 3019 2420 3045 
Q 2306 3072 2169 3072 
Q 1681 3072 1420 2755 
Q 1159 2438 1159 1844 
L 1159 0 
L 581 0 
L 581 3500 
L 1159 3500 
L 1159 2956 
Q 1341 3275 1631 3429 
Q 1922 3584 2338 3584 
Q 2397 3584 2469 3576 
Q 2541 3569 2628 3553 
L 2631 2963 
z
" transform="scale(0.015625)"/>
       <path id="DejaVuSans-56" d="M 1831 0 
L 50 4666 
L 709 4666 
L 2188 738 
L 3669 4666 
L 4325 4666 
L 2547 0 
L 1831 0 
z
" transform="scale(0.015625)"/>
       <path id="DejaVuSans-6f" d="M 1959 3097 
Q 1497 3097 1228 2736 
Q 959 2375 959 1747 
Q 959 1119 1226 758 
Q 1494 397 1959 397 
Q 2419 397 2687 759 
Q 2956 1122 2956 1747 
Q 2956 2369 2687 2733 
Q 2419 3097 1959 3097 
z
M 1959 3584 
Q 2709 3584 3137 3096 
Q 3566 2609 3566 1747 
Q 3566 888 3137 398 
Q 2709 -91 1959 -91 
Q 1206 -91 779 398 
Q 353 888 353 1747 
Q 353 2609 779 3096 
Q 1206 3584 1959 3584 
z
" transform="scale(0.015625)"/>
       <path id="DejaVuSans-63" d="M 3122 3366 
L 3122 2828 
Q 2878 2963 2633 3030 
Q 2388 3097 2138 3097 
Q 1578 3097 1268 2742 
Q 959 2388 959 1747 
Q 959 1106 1268 751 
Q 1578 397 2138 397 
Q 2388 397 2633 464 
Q 2878 531 3122 666 
L 3122 134 
Q 2881 22 2623 -34 
Q 2366 -91 2075 -91 
Q 1284 -91 818 406 
Q 353 903 353 1747 
Q 353 2603 823 3093 
Q 1294 3584 2113 3584 
Q 2378 3584 2631 3529 
Q 2884 3475 3122 3366 
z
" transform="scale(0.015625)"/>
       <path id="DejaVuSans-69" d="M 603 3500 
L 1178 3500 
L 1178 0 
L 603 0 
L 603 3500 
z
M 603 4863 
L 1178 4863 
L 1178 4134 
L 603 4134 
L 603 4863 
z
" transform="scale(0.015625)"/>
       <path id="DejaVuSans-79" d="M 2059 -325 
Q 1816 -950 1584 -1140 
Q 1353 -1331 966 -1331 
L 506 -1331 
L 506 -850 
L 844 -850 
Q 1081 -850 1212 -737 
Q 1344 -625 1503 -206 
L 1606 56 
L 191 3500 
L 800 3500 
L 1894 763 
L 2988 3500 
L 3597 3500 
L 2059 -325 
z
" transform="scale(0.015625)"/>
       <path id="DejaVuSans-44" d="M 1259 4147 
L 1259 519 
L 2022 519 
Q 2988 519 3436 956 
Q 3884 1394 3884 2338 
Q 3884 3275 3436 3711 
Q 2988 4147 2022 4147 
L 1259 4147 
z
M 628 4666 
L 1925 4666 
Q 3281 4666 3915 4102 
Q 4550 3538 4550 2338 
Q 4550 1131 3912 565 
Q 3275 0 1925 0 
L 628 0 
L 628 4666 
z
" transform="scale(0.015625)"/>
       <path id="DejaVuSans-66" d="M 2375 4863 
L 2375 4384 
L 1825 4384 
Q 1516 4384 1395 4259 
Q 1275 4134 1275 3809 
L 1275 3500 
L 2222 3500 
L 2222 3053 
L 1275 3053 
L 1275 0 
L 697 0 
L 697 3053 
L 147 3053 
L 147 3500 
L 697 3500 
L 697 3744 
Q 697 4328 969 4595 
Q 1241 4863 1831 4863 
L 2375 4863 
z
" transform="scale(0.015625)"/>
       <path id="DejaVuSans-6e" d="M 3513 2113 
L 3513 0 
L 2938 0 
L 2938 2094 
Q 2938 2591 2744 2837 
Q 2550 3084 2163 3084 
Q 1697 3084 1428 2787 
Q 1159 2491 1159 1978 
L 1159 0 
L 581 0 
L 581 3500 
L 1159 3500 
L 1159 2956 
Q 1366 3272 1645 3428 
Q 1925 3584 2291 3584 
Q 2894 3584 3203 3211 
Q 3513 2838 3513 2113 
z
" transform="scale(0.015625)"/>
       <path id="DejaVuSans-20" transform="scale(0.015625)"/>
       <path id="DejaVuSans-70" d="M 1159 525 
L 1159 -1331 
L 581 -1331 
L 581 3500 
L 1159 3500 
L 1159 2969 
Q 1341 3281 1617 3432 
Q 1894 3584 2278 3584 
Q 2916 3584 3314 3078 
Q 3713 2572 3713 1747 
Q 3713 922 3314 415 
Q 2916 -91 2278 -91 
Q 1894 -91 1617 61 
Q 1341 213 1159 525 
z
M 3116 1747 
Q 3116 2381 2855 2742 
Q 2594 3103 2138 3103 
Q 1681 3103 1420 2742 
Q 1159 2381 1159 1747 
Q 1159 1113 1420 752 
Q 1681 391 2138 391 
Q 2594 391 2855 752 
Q 3116 1113 3116 1747 
z
" transform="scale(0.015625)"/>
      </defs>
      <use xlink:href="#DejaVuSans-6d"/>
      <use xlink:href="#DejaVuSans-61" x="97.412109"/>
      <use xlink:href="#DejaVuSans-78" x="158.691406"/>
      <use xlink:href="#DejaVuSans-43" x="217.871094"/>
      <use xlink:href="#DejaVuSans-6c" x="287.695312"/>
      <use xlink:href="#DejaVuSans-75" x="315.478516"/>
      <use xlink:href="#DejaVuSans-73" x="378.857422"/>
      <use xlink:href="#DejaVuSans-74" x="430.957031"/>
      <use xlink:href="#DejaVuSans-65" x="470.166016"/>
      <use xlink:href="#DejaVuSans-72" x="531.689453"/>
      <use xlink:href="#DejaVuSans-56" x="572.802734"/>
      <use xlink:href="#DejaVuSans-65" x="633.460938"/>
      <use xlink:href="#DejaVuSans-6c" x="694.984375"/>
      <use xlink:href="#DejaVuSans-6f" x="722.767578"/>
      <use xlink:href="#DejaVuSans-63" x="783.949219"/>
      <use xlink:href="#DejaVuSans-69" x="838.929688"/>
      <use xlink:href="#DejaVuSans-74" x="866.712891"/>
      <use xlink:href="#DejaVuSans-79" x="905.921875"/>
      <use xlink:href="#DejaVuSans-44" x="965.101562"/>
      <use xlink:href="#DejaVuSans-69" x="1042.103516"/>
      <use xlink:href="#DejaVuSans-66" x="1069.886719"/>
      <use xlink:href="#DejaVuSans-66" x="1105.091797"/>
      <use xlink:href="#DejaVuSans-65" x="1140.296875"/>
      <use xlink:href="#DejaVuSans-72" x="1201.820312"/>
      <use xlink:href="#DejaVuSans-65" x="1240.683594"/>
      <use xlink:href="#DejaVuSans-6e" x="1302.207031"/>
      <use xlink:href="#DejaVuSans-63" x="1365.585938"/>
      <use xlink:href="#DejaVuSans-65" x="1420.566406"/>
      <use xlink:href="#DejaVuSans-20" x="1482.089844"/>
      <use xlink:href="#DejaVuSans-70" x="1513.876953"/>
      <use xlink:href="#DejaVuSans-61" x="1577.353516"/>
      <use xlink:href="#DejaVuSans-72" x="1638.632812"/>
      <use xlink:href="#DejaVuSans-61" x="1679.746094"/>
      <use xlink:href="#DejaVuSans-6d" x="1741.025391"/>
      <use xlink:href="#DejaVuSans-65" x="1838.4375"/>
      <use xlink:href="#DejaVuSans-74" x="1899.960938"/>
      <use xlink:href="#DejaVuSans-65" x="1939.169922"/>
      <use xlink:href="#DejaVuSans-72" x="2000.693359"/>
     </g>
    </g>
   </g>
   <g id="matplotlib.axis_2">
    <g id="ytick_1">
     <g id="line2d_21">
      <path d="M 158.924 212.843834 
L 704.88 212.843834 
" clip-path="url(#p1fd1ad5732)" style="fill: none; stroke-dasharray: 2.96,1.28; stroke-dashoffset: 0; stroke: #b0b0b0; stroke-width: 0.8"/>
     </g>
     <g id="line2d_22">
      <defs>
       <path id="m0c12d7e3a1" d="M 0 0 
L -3.5 0 
" style="stroke: #000000; stroke-width: 0.8"/>
      </defs>
      <g>
       <use xlink:href="#m0c12d7e3a1" x="158.924" y="212.843834" style="stroke: #000000; stroke-width: 0.8"/>
      </g>
     </g>
     <g id="text_12">
      <!-- 2000 -->
      <g transform="translate(116.294 218.162741) scale(0.14 -0.14)">
       <use xlink:href="#DejaVuSans-32"/>
       <use xlink:href="#DejaVuSans-30" x="63.623047"/>
       <use xlink:href="#DejaVuSans-30" x="127.246094"/>
       <use xlink:href="#DejaVuSans-30" x="190.869141"/>
      </g>
     </g>
    </g>
    <g id="ytick_2">
     <g id="line2d_23">
      <path d="M 158.924 168.905205 
L 704.88 168.905205 
" clip-path="url(#p1fd1ad5732)" style="fill: none; stroke-dasharray: 2.96,1.28; stroke-dashoffset: 0; stroke: #b0b0b0; stroke-width: 0.8"/>
     </g>
     <g id="line2d_24">
      <g>
       <use xlink:href="#m0c12d7e3a1" x="158.924" y="168.905205" style="stroke: #000000; stroke-width: 0.8"/>
      </g>
     </g>
     <g id="text_13">
      <!-- 3000 -->
      <g transform="translate(116.294 174.224111) scale(0.14 -0.14)">
       <use xlink:href="#DejaVuSans-33"/>
       <use xlink:href="#DejaVuSans-30" x="63.623047"/>
       <use xlink:href="#DejaVuSans-30" x="127.246094"/>
       <use xlink:href="#DejaVuSans-30" x="190.869141"/>
      </g>
     </g>
    </g>
    <g id="ytick_3">
     <g id="line2d_25">
      <path d="M 158.924 124.966575 
L 704.88 124.966575 
" clip-path="url(#p1fd1ad5732)" style="fill: none; stroke-dasharray: 2.96,1.28; stroke-dashoffset: 0; stroke: #b0b0b0; stroke-width: 0.8"/>
     </g>
     <g id="line2d_26">
      <g>
       <use xlink:href="#m0c12d7e3a1" x="158.924" y="124.966575" style="stroke: #000000; stroke-width: 0.8"/>
      </g>
     </g>
     <g id="text_14">
      <!-- 4000 -->
      <g transform="translate(116.294 130.285481) scale(0.14 -0.14)">
       <use xlink:href="#DejaVuSans-34"/>
       <use xlink:href="#DejaVuSans-30" x="63.623047"/>
       <use xlink:href="#DejaVuSans-30" x="127.246094"/>
       <use xlink:href="#DejaVuSans-30" x="190.869141"/>
      </g>
     </g>
    </g>
    <g id="ytick_4">
     <g id="line2d_27">
      <path d="M 158.924 81.027945 
L 704.88 81.027945 
" clip-path="url(#p1fd1ad5732)" style="fill: none; stroke-dasharray: 2.96,1.28; stroke-dashoffset: 0; stroke: #b0b0b0; stroke-width: 0.8"/>
     </g>
     <g id="line2d_28">
      <g>
       <use xlink:href="#m0c12d7e3a1" x="158.924" y="81.027945" style="stroke: #000000; stroke-width: 0.8"/>
      </g>
     </g>
     <g id="text_15">
      <!-- 5000 -->
      <g transform="translate(116.294 86.346851) scale(0.14 -0.14)">
       <use xlink:href="#DejaVuSans-35"/>
       <use xlink:href="#DejaVuSans-30" x="63.623047"/>
       <use xlink:href="#DejaVuSans-30" x="127.246094"/>
       <use xlink:href="#DejaVuSans-30" x="190.869141"/>
      </g>
     </g>
    </g>
    <g id="ytick_5">
     <g id="line2d_29">
      <path d="M 158.924 37.089315 
L 704.88 37.089315 
" clip-path="url(#p1fd1ad5732)" style="fill: none; stroke-dasharray: 2.96,1.28; stroke-dashoffset: 0; stroke: #b0b0b0; stroke-width: 0.8"/>
     </g>
     <g id="line2d_30">
      <g>
       <use xlink:href="#m0c12d7e3a1" x="158.924" y="37.089315" style="stroke: #000000; stroke-width: 0.8"/>
      </g>
     </g>
     <g id="text_16">
      <!-- 6000 -->
      <g transform="translate(116.294 42.408221) scale(0.14 -0.14)">
       <defs>
        <path id="DejaVuSans-36" d="M 2113 2584 
Q 1688 2584 1439 2293 
Q 1191 2003 1191 1497 
Q 1191 994 1439 701 
Q 1688 409 2113 409 
Q 2538 409 2786 701 
Q 3034 994 3034 1497 
Q 3034 2003 2786 2293 
Q 2538 2584 2113 2584 
z
M 3366 4563 
L 3366 3988 
Q 3128 4100 2886 4159 
Q 2644 4219 2406 4219 
Q 1781 4219 1451 3797 
Q 1122 3375 1075 2522 
Q 1259 2794 1537 2939 
Q 1816 3084 2150 3084 
Q 2853 3084 3261 2657 
Q 3669 2231 3669 1497 
Q 3669 778 3244 343 
Q 2819 -91 2113 -91 
Q 1303 -91 875 529 
Q 447 1150 447 2328 
Q 447 3434 972 4092 
Q 1497 4750 2381 4750 
Q 2619 4750 2861 4703 
Q 3103 4656 3366 4563 
z
" transform="scale(0.015625)"/>
       </defs>
       <use xlink:href="#DejaVuSans-36"/>
       <use xlink:href="#DejaVuSans-30" x="63.623047"/>
       <use xlink:href="#DejaVuSans-30" x="127.246094"/>
       <use xlink:href="#DejaVuSans-30" x="190.869141"/>
      </g>
     </g>
    </g>
    <g id="text_17">
     <!--  -->
     <g transform="translate(27.926313 113.981917) rotate(-90) scale(0.18 -0.18)"/>
     <!-- Median number of  -->
     <g transform="translate(48.082375 199.099417) rotate(-90) scale(0.18 -0.18)">
      <defs>
       <path id="DejaVuSans-4d" d="M 628 4666 
L 1569 4666 
L 2759 1491 
L 3956 4666 
L 4897 4666 
L 4897 0 
L 4281 0 
L 4281 4097 
L 3078 897 
L 2444 897 
L 1241 4097 
L 1241 0 
L 628 0 
L 628 4666 
z
" transform="scale(0.015625)"/>
       <path id="DejaVuSans-64" d="M 2906 2969 
L 2906 4863 
L 3481 4863 
L 3481 0 
L 2906 0 
L 2906 525 
Q 2725 213 2448 61 
Q 2172 -91 1784 -91 
Q 1150 -91 751 415 
Q 353 922 353 1747 
Q 353 2572 751 3078 
Q 1150 3584 1784 3584 
Q 2172 3584 2448 3432 
Q 2725 3281 2906 2969 
z
M 947 1747 
Q 947 1113 1208 752 
Q 1469 391 1925 391 
Q 2381 391 2643 752 
Q 2906 1113 2906 1747 
Q 2906 2381 2643 2742 
Q 2381 3103 1925 3103 
Q 1469 3103 1208 2742 
Q 947 2381 947 1747 
z
" transform="scale(0.015625)"/>
       <path id="DejaVuSans-62" d="M 3116 1747 
Q 3116 2381 2855 2742 
Q 2594 3103 2138 3103 
Q 1681 3103 1420 2742 
Q 1159 2381 1159 1747 
Q 1159 1113 1420 752 
Q 1681 391 2138 391 
Q 2594 391 2855 752 
Q 3116 1113 3116 1747 
z
M 1159 2969 
Q 1341 3281 1617 3432 
Q 1894 3584 2278 3584 
Q 2916 3584 3314 3078 
Q 3713 2572 3713 1747 
Q 3713 922 3314 415 
Q 2916 -91 2278 -91 
Q 1894 -91 1617 61 
Q 1341 213 1159 525 
L 1159 0 
L 581 0 
L 581 4863 
L 1159 4863 
L 1159 2969 
z
" transform="scale(0.015625)"/>
      </defs>
      <use xlink:href="#DejaVuSans-4d"/>
      <use xlink:href="#DejaVuSans-65" x="86.279297"/>
      <use xlink:href="#DejaVuSans-64" x="147.802734"/>
      <use xlink:href="#DejaVuSans-69" x="211.279297"/>
      <use xlink:href="#DejaVuSans-61" x="239.0625"/>
      <use xlink:href="#DejaVuSans-6e" x="300.341797"/>
      <use xlink:href="#DejaVuSans-20" x="363.720703"/>
      <use xlink:href="#DejaVuSans-6e" x="395.507812"/>
      <use xlink:href="#DejaVuSans-75" x="458.886719"/>
      <use xlink:href="#DejaVuSans-6d" x="522.265625"/>
      <use xlink:href="#DejaVuSans-62" x="619.677734"/>
      <use xlink:href="#DejaVuSans-65" x="683.154297"/>
      <use xlink:href="#DejaVuSans-72" x="744.677734"/>
      <use xlink:href="#DejaVuSans-20" x="785.791016"/>
      <use xlink:href="#DejaVuSans-6f" x="817.578125"/>
      <use xlink:href="#DejaVuSans-66" x="878.759766"/>
      <use xlink:href="#DejaVuSans-20" x="913.964844"/>
     </g>
     <!--  messages received by  -->
     <g transform="translate(68.238438 220.200198) rotate(-90) scale(0.18 -0.18)">
      <defs>
       <path id="DejaVuSans-67" d="M 2906 1791 
Q 2906 2416 2648 2759 
Q 2391 3103 1925 3103 
Q 1463 3103 1205 2759 
Q 947 2416 947 1791 
Q 947 1169 1205 825 
Q 1463 481 1925 481 
Q 2391 481 2648 825 
Q 2906 1169 2906 1791 
z
M 3481 434 
Q 3481 -459 3084 -895 
Q 2688 -1331 1869 -1331 
Q 1566 -1331 1297 -1286 
Q 1028 -1241 775 -1147 
L 775 -588 
Q 1028 -725 1275 -790 
Q 1522 -856 1778 -856 
Q 2344 -856 2625 -561 
Q 2906 -266 2906 331 
L 2906 616 
Q 2728 306 2450 153 
Q 2172 0 1784 0 
Q 1141 0 747 490 
Q 353 981 353 1791 
Q 353 2603 747 3093 
Q 1141 3584 1784 3584 
Q 2172 3584 2450 3431 
Q 2728 3278 2906 2969 
L 2906 3500 
L 3481 3500 
L 3481 434 
z
" transform="scale(0.015625)"/>
       <path id="DejaVuSans-76" d="M 191 3500 
L 800 3500 
L 1894 563 
L 2988 3500 
L 3597 3500 
L 2284 0 
L 1503 0 
L 191 3500 
z
" transform="scale(0.015625)"/>
      </defs>
      <use xlink:href="#DejaVuSans-20"/>
      <use xlink:href="#DejaVuSans-6d" x="31.787109"/>
      <use xlink:href="#DejaVuSans-65" x="129.199219"/>
      <use xlink:href="#DejaVuSans-73" x="190.722656"/>
      <use xlink:href="#DejaVuSans-73" x="242.822266"/>
      <use xlink:href="#DejaVuSans-61" x="294.921875"/>
      <use xlink:href="#DejaVuSans-67" x="356.201172"/>
      <use xlink:href="#DejaVuSans-65" x="419.677734"/>
      <use xlink:href="#DejaVuSans-73" x="481.201172"/>
      <use xlink:href="#DejaVuSans-20" x="533.300781"/>
      <use xlink:href="#DejaVuSans-72" x="565.087891"/>
      <use xlink:href="#DejaVuSans-65" x="603.951172"/>
      <use xlink:href="#DejaVuSans-63" x="665.474609"/>
      <use xlink:href="#DejaVuSans-65" x="720.455078"/>
      <use xlink:href="#DejaVuSans-69" x="781.978516"/>
      <use xlink:href="#DejaVuSans-76" x="809.761719"/>
      <use xlink:href="#DejaVuSans-65" x="868.941406"/>
      <use xlink:href="#DejaVuSans-64" x="930.464844"/>
      <use xlink:href="#DejaVuSans-20" x="993.941406"/>
      <use xlink:href="#DejaVuSans-62" x="1025.728516"/>
      <use xlink:href="#DejaVuSans-79" x="1089.205078"/>
      <use xlink:href="#DejaVuSans-20" x="1148.384766"/>
     </g>
     <!-- vehicle nodes -->
     <g transform="translate(88.3945 176.048167) rotate(-90) scale(0.18 -0.18)">
      <defs>
       <path id="DejaVuSans-68" d="M 3513 2113 
L 3513 0 
L 2938 0 
L 2938 2094 
Q 2938 2591 2744 2837 
Q 2550 3084 2163 3084 
Q 1697 3084 1428 2787 
Q 1159 2491 1159 1978 
L 1159 0 
L 581 0 
L 581 4863 
L 1159 4863 
L 1159 2956 
Q 1366 3272 1645 3428 
Q 1925 3584 2291 3584 
Q 2894 3584 3203 3211 
Q 3513 2838 3513 2113 
z
" transform="scale(0.015625)"/>
      </defs>
      <use xlink:href="#DejaVuSans-76"/>
      <use xlink:href="#DejaVuSans-65" x="59.179688"/>
      <use xlink:href="#DejaVuSans-68" x="120.703125"/>
      <use xlink:href="#DejaVuSans-69" x="184.082031"/>
      <use xlink:href="#DejaVuSans-63" x="211.865234"/>
      <use xlink:href="#DejaVuSans-6c" x="266.845703"/>
      <use xlink:href="#DejaVuSans-65" x="294.628906"/>
      <use xlink:href="#DejaVuSans-20" x="356.152344"/>
      <use xlink:href="#DejaVuSans-6e" x="387.939453"/>
      <use xlink:href="#DejaVuSans-6f" x="451.318359"/>
      <use xlink:href="#DejaVuSans-64" x="512.5"/>
      <use xlink:href="#DejaVuSans-65" x="575.976562"/>
      <use xlink:href="#DejaVuSans-73" x="637.5"/>
     </g>
     <!-- +/- std. deviation -->
     <g transform="translate(108.550563 192.146917) rotate(-90) scale(0.18 -0.18)">
      <defs>
       <path id="DejaVuSans-2b" d="M 2944 4013 
L 2944 2272 
L 4684 2272 
L 4684 1741 
L 2944 1741 
L 2944 0 
L 2419 0 
L 2419 1741 
L 678 1741 
L 678 2272 
L 2419 2272 
L 2419 4013 
L 2944 4013 
z
" transform="scale(0.015625)"/>
       <path id="DejaVuSans-2f" d="M 1625 4666 
L 2156 4666 
L 531 -594 
L 0 -594 
L 1625 4666 
z
" transform="scale(0.015625)"/>
       <path id="DejaVuSans-2d" d="M 313 2009 
L 1997 2009 
L 1997 1497 
L 313 1497 
L 313 2009 
z
" transform="scale(0.015625)"/>
      </defs>
      <use xlink:href="#DejaVuSans-2b"/>
      <use xlink:href="#DejaVuSans-2f" x="83.789062"/>
      <use xlink:href="#DejaVuSans-2d" x="117.480469"/>
      <use xlink:href="#DejaVuSans-20" x="153.564453"/>
      <use xlink:href="#DejaVuSans-73" x="185.351562"/>
      <use xlink:href="#DejaVuSans-74" x="237.451172"/>
      <use xlink:href="#DejaVuSans-64" x="276.660156"/>
      <use xlink:href="#DejaVuSans-2e" x="340.136719"/>
      <use xlink:href="#DejaVuSans-20" x="371.923828"/>
      <use xlink:href="#DejaVuSans-64" x="403.710938"/>
      <use xlink:href="#DejaVuSans-65" x="467.1875"/>
      <use xlink:href="#DejaVuSans-76" x="528.710938"/>
      <use xlink:href="#DejaVuSans-69" x="587.890625"/>
      <use xlink:href="#DejaVuSans-61" x="615.673828"/>
      <use xlink:href="#DejaVuSans-74" x="676.953125"/>
      <use xlink:href="#DejaVuSans-69" x="716.162109"/>
      <use xlink:href="#DejaVuSans-6f" x="743.945312"/>
      <use xlink:href="#DejaVuSans-6e" x="805.126953"/>
     </g>
    </g>
   </g>
   <g id="line2d_31">
    <path d="M 158.924 51.149677 
L 704.88 51.149677 
" clip-path="url(#p1fd1ad5732)" style="fill: none; stroke-dasharray: 7.4,3.2; stroke-dashoffset: 0; stroke: #0000ff; stroke-width: 2"/>
   </g>
   <g id="line2d_32">
    <path d="M 158.924 32.168188 
L 704.88 32.168188 
" clip-path="url(#p1fd1ad5732)" style="fill: none; stroke-dasharray: 1.5,2.475; stroke-dashoffset: 0; stroke: #0000ff; stroke-width: 1.5"/>
   </g>
   <g id="line2d_33">
    <path d="M 158.924 70.131165 
L 704.88 70.131165 
" clip-path="url(#p1fd1ad5732)" style="fill: none; stroke-dasharray: 1.5,2.475; stroke-dashoffset: 0; stroke: #0000ff; stroke-width: 1.5"/>
   </g>
   <g id="LineCollection_1">
    <path d="M 183.740182 74.929242 
L 183.740182 34.795739 
" clip-path="url(#p1fd1ad5732)" style="fill: none; stroke: #808080; stroke-width: 1.5"/>
    <path d="M 238.887253 79.071292 
L 238.887253 41.638347 
" clip-path="url(#p1fd1ad5732)" style="fill: none; stroke: #808080; stroke-width: 1.5"/>
    <path d="M 294.034323 95.657295 
L 294.034323 59.104782 
" clip-path="url(#p1fd1ad5732)" style="fill: none; stroke: #808080; stroke-width: 1.5"/>
    <path d="M 349.181394 120.889911 
L 349.181394 83.039492 
" clip-path="url(#p1fd1ad5732)" style="fill: none; stroke: #808080; stroke-width: 1.5"/>
    <path d="M 404.328465 138.66632 
L 404.328465 101.600331 
" clip-path="url(#p1fd1ad5732)" style="fill: none; stroke: #808080; stroke-width: 1.5"/>
    <path d="M 459.475535 154.894916 
L 459.475535 118.677216 
" clip-path="url(#p1fd1ad5732)" style="fill: none; stroke: #808080; stroke-width: 1.5"/>
    <path d="M 514.622606 149.428503 
L 514.622606 119.31038 
" clip-path="url(#p1fd1ad5732)" style="fill: none; stroke: #808080; stroke-width: 1.5"/>
    <path d="M 569.769677 156.210353 
L 569.769677 128.610068 
" clip-path="url(#p1fd1ad5732)" style="fill: none; stroke: #808080; stroke-width: 1.5"/>
    <path d="M 624.916747 166.786459 
L 624.916747 133.017035 
" clip-path="url(#p1fd1ad5732)" style="fill: none; stroke: #808080; stroke-width: 1.5"/>
    <path d="M 680.063818 169.076838 
L 680.063818 133.582667 
" clip-path="url(#p1fd1ad5732)" style="fill: none; stroke: #808080; stroke-width: 1.5"/>
   </g>
   <g id="line2d_34">
    <defs>
     <path id="m9a2f812d22" d="M 5 0 
L -5 -0 
" style="stroke: #808080"/>
    </defs>
    <g clip-path="url(#p1fd1ad5732)">
     <use xlink:href="#m9a2f812d22" x="183.740182" y="74.929242" style="fill: #808080; stroke: #808080"/>
     <use xlink:href="#m9a2f812d22" x="238.887253" y="79.071292" style="fill: #808080; stroke: #808080"/>
     <use xlink:href="#m9a2f812d22" x="294.034323" y="95.657295" style="fill: #808080; stroke: #808080"/>
     <use xlink:href="#m9a2f812d22" x="349.181394" y="120.889911" style="fill: #808080; stroke: #808080"/>
     <use xlink:href="#m9a2f812d22" x="404.328465" y="138.66632" style="fill: #808080; stroke: #808080"/>
     <use xlink:href="#m9a2f812d22" x="459.475535" y="154.894916" style="fill: #808080; stroke: #808080"/>
     <use xlink:href="#m9a2f812d22" x="514.622606" y="149.428503" style="fill: #808080; stroke: #808080"/>
     <use xlink:href="#m9a2f812d22" x="569.769677" y="156.210353" style="fill: #808080; stroke: #808080"/>
     <use xlink:href="#m9a2f812d22" x="624.916747" y="166.786459" style="fill: #808080; stroke: #808080"/>
     <use xlink:href="#m9a2f812d22" x="680.063818" y="169.076838" style="fill: #808080; stroke: #808080"/>
    </g>
   </g>
   <g id="line2d_35">
    <g clip-path="url(#p1fd1ad5732)">
     <use xlink:href="#m9a2f812d22" x="183.740182" y="34.795739" style="fill: #808080; stroke: #808080"/>
     <use xlink:href="#m9a2f812d22" x="238.887253" y="41.638347" style="fill: #808080; stroke: #808080"/>
     <use xlink:href="#m9a2f812d22" x="294.034323" y="59.104782" style="fill: #808080; stroke: #808080"/>
     <use xlink:href="#m9a2f812d22" x="349.181394" y="83.039492" style="fill: #808080; stroke: #808080"/>
     <use xlink:href="#m9a2f812d22" x="404.328465" y="101.600331" style="fill: #808080; stroke: #808080"/>
     <use xlink:href="#m9a2f812d22" x="459.475535" y="118.677216" style="fill: #808080; stroke: #808080"/>
     <use xlink:href="#m9a2f812d22" x="514.622606" y="119.31038" style="fill: #808080; stroke: #808080"/>
     <use xlink:href="#m9a2f812d22" x="569.769677" y="128.610068" style="fill: #808080; stroke: #808080"/>
     <use xlink:href="#m9a2f812d22" x="624.916747" y="133.017035" style="fill: #808080; stroke: #808080"/>
     <use xlink:href="#m9a2f812d22" x="680.063818" y="133.582667" style="fill: #808080; stroke: #808080"/>
    </g>
   </g>
   <g id="LineCollection_2">
    <path d="M 183.740182 71.216978 
L 183.740182 33.762631 
" clip-path="url(#p1fd1ad5732)" style="fill: none; stroke: #808080; stroke-width: 1.5"/>
    <path d="M 238.887253 70.320132 
L 238.887253 33.956459 
" clip-path="url(#p1fd1ad5732)" style="fill: none; stroke: #808080; stroke-width: 1.5"/>
    <path d="M 294.034323 70.283867 
L 294.034323 32.410934 
" clip-path="url(#p1fd1ad5732)" style="fill: none; stroke: #808080; stroke-width: 1.5"/>
    <path d="M 349.181394 72.998657 
L 349.181394 36.506631 
" clip-path="url(#p1fd1ad5732)" style="fill: none; stroke: #808080; stroke-width: 1.5"/>
    <path d="M 404.328465 80.734729 
L 404.328465 43.446062 
" clip-path="url(#p1fd1ad5732)" style="fill: none; stroke: #808080; stroke-width: 1.5"/>
    <path d="M 459.475535 94.465396 
L 459.475535 54.54072 
" clip-path="url(#p1fd1ad5732)" style="fill: none; stroke: #808080; stroke-width: 1.5"/>
    <path d="M 514.622606 103.892658 
L 514.622606 65.500983 
" clip-path="url(#p1fd1ad5732)" style="fill: none; stroke: #808080; stroke-width: 1.5"/>
    <path d="M 569.769677 116.542773 
L 569.769677 80.620082 
" clip-path="url(#p1fd1ad5732)" style="fill: none; stroke: #808080; stroke-width: 1.5"/>
    <path d="M 624.916747 139.180597 
L 624.916747 97.483086 
" clip-path="url(#p1fd1ad5732)" style="fill: none; stroke: #808080; stroke-width: 1.5"/>
    <path d="M 680.063818 142.580183 
L 680.063818 104.540894 
" clip-path="url(#p1fd1ad5732)" style="fill: none; stroke: #808080; stroke-width: 1.5"/>
   </g>
   <g id="line2d_36">
    <g clip-path="url(#p1fd1ad5732)">
     <use xlink:href="#m9a2f812d22" x="183.740182" y="71.216978" style="fill: #808080; stroke: #808080"/>
     <use xlink:href="#m9a2f812d22" x="238.887253" y="70.320132" style="fill: #808080; stroke: #808080"/>
     <use xlink:href="#m9a2f812d22" x="294.034323" y="70.283867" style="fill: #808080; stroke: #808080"/>
     <use xlink:href="#m9a2f812d22" x="349.181394" y="72.998657" style="fill: #808080; stroke: #808080"/>
     <use xlink:href="#m9a2f812d22" x="404.328465" y="80.734729" style="fill: #808080; stroke: #808080"/>
     <use xlink:href="#m9a2f812d22" x="459.475535" y="94.465396" style="fill: #808080; stroke: #808080"/>
     <use xlink:href="#m9a2f812d22" x="514.622606" y="103.892658" style="fill: #808080; stroke: #808080"/>
     <use xlink:href="#m9a2f812d22" x="569.769677" y="116.542773" style="fill: #808080; stroke: #808080"/>
     <use xlink:href="#m9a2f812d22" x="624.916747" y="139.180597" style="fill: #808080; stroke: #808080"/>
     <use xlink:href="#m9a2f812d22" x="680.063818" y="142.580183" style="fill: #808080; stroke: #808080"/>
    </g>
   </g>
   <g id="line2d_37">
    <g clip-path="url(#p1fd1ad5732)">
     <use xlink:href="#m9a2f812d22" x="183.740182" y="33.762631" style="fill: #808080; stroke: #808080"/>
     <use xlink:href="#m9a2f812d22" x="238.887253" y="33.956459" style="fill: #808080; stroke: #808080"/>
     <use xlink:href="#m9a2f812d22" x="294.034323" y="32.410934" style="fill: #808080; stroke: #808080"/>
     <use xlink:href="#m9a2f812d22" x="349.181394" y="36.506631" style="fill: #808080; stroke: #808080"/>
     <use xlink:href="#m9a2f812d22" x="404.328465" y="43.446062" style="fill: #808080; stroke: #808080"/>
     <use xlink:href="#m9a2f812d22" x="459.475535" y="54.54072" style="fill: #808080; stroke: #808080"/>
     <use xlink:href="#m9a2f812d22" x="514.622606" y="65.500983" style="fill: #808080; stroke: #808080"/>
     <use xlink:href="#m9a2f812d22" x="569.769677" y="80.620082" style="fill: #808080; stroke: #808080"/>
     <use xlink:href="#m9a2f812d22" x="624.916747" y="97.483086" style="fill: #808080; stroke: #808080"/>
     <use xlink:href="#m9a2f812d22" x="680.063818" y="104.540894" style="fill: #808080; stroke: #808080"/>
    </g>
   </g>
   <g id="line2d_38">
    <path d="M 183.740182 54.862491 
L 238.887253 60.354819 
L 294.034323 77.381039 
L 349.181394 101.964702 
L 404.328465 120.133325 
L 459.475535 136.786066 
L 514.622606 134.369441 
L 569.769677 142.410211 
L 624.916747 149.901747 
L 680.063818 151.329753 
" clip-path="url(#p1fd1ad5732)" style="fill: none; stroke: #800080; stroke-width: 1.5; stroke-linecap: square"/>
    <defs>
     <path id="m1df465f449" d="M 0 3 
C 0.795609 3 1.55874 2.683901 2.12132 2.12132 
C 2.683901 1.55874 3 0.795609 3 0 
C 3 -0.795609 2.683901 -1.55874 2.12132 -2.12132 
C 1.55874 -2.683901 0.795609 -3 0 -3 
C -0.795609 -3 -1.55874 -2.683901 -2.12132 -2.12132 
C -2.683901 -1.55874 -3 -0.795609 -3 0 
C -3 0.795609 -2.683901 1.55874 -2.12132 2.12132 
C -1.55874 2.683901 -0.795609 3 0 3 
z
" style="stroke: #800080"/>
    </defs>
    <g clip-path="url(#p1fd1ad5732)">
     <use xlink:href="#m1df465f449" x="183.740182" y="54.862491" style="fill: #800080; stroke: #800080"/>
     <use xlink:href="#m1df465f449" x="238.887253" y="60.354819" style="fill: #800080; stroke: #800080"/>
     <use xlink:href="#m1df465f449" x="294.034323" y="77.381039" style="fill: #800080; stroke: #800080"/>
     <use xlink:href="#m1df465f449" x="349.181394" y="101.964702" style="fill: #800080; stroke: #800080"/>
     <use xlink:href="#m1df465f449" x="404.328465" y="120.133325" style="fill: #800080; stroke: #800080"/>
     <use xlink:href="#m1df465f449" x="459.475535" y="136.786066" style="fill: #800080; stroke: #800080"/>
     <use xlink:href="#m1df465f449" x="514.622606" y="134.369441" style="fill: #800080; stroke: #800080"/>
     <use xlink:href="#m1df465f449" x="569.769677" y="142.410211" style="fill: #800080; stroke: #800080"/>
     <use xlink:href="#m1df465f449" x="624.916747" y="149.901747" style="fill: #800080; stroke: #800080"/>
     <use xlink:href="#m1df465f449" x="680.063818" y="151.329753" style="fill: #800080; stroke: #800080"/>
    </g>
   </g>
   <g id="line2d_39">
    <path d="M 183.740182 52.489805 
L 238.887253 52.138296 
L 294.034323 51.3474 
L 349.181394 54.752644 
L 404.328465 62.090395 
L 459.475535 74.503058 
L 514.622606 84.69682 
L 569.769677 98.581427 
L 624.916747 118.331842 
L 680.063818 123.560539 
" clip-path="url(#p1fd1ad5732)" style="fill: none; stroke: #000000; stroke-width: 1.5; stroke-linecap: square"/>
    <defs>
     <path id="mcf731b857d" d="M 0 3 
C 0.795609 3 1.55874 2.683901 2.12132 2.12132 
C 2.683901 1.55874 3 0.795609 3 0 
C 3 -0.795609 2.683901 -1.55874 2.12132 -2.12132 
C 1.55874 -2.683901 0.795609 -3 0 -3 
C -0.795609 -3 -1.55874 -2.683901 -2.12132 -2.12132 
C -2.683901 -1.55874 -3 -0.795609 -3 0 
C -3 0.795609 -2.683901 1.55874 -2.12132 2.12132 
C -1.55874 2.683901 -0.795609 3 0 3 
z
" style="stroke: #000000"/>
    </defs>
    <g clip-path="url(#p1fd1ad5732)">
     <use xlink:href="#mcf731b857d" x="183.740182" y="52.489805" style="stroke: #000000"/>
     <use xlink:href="#mcf731b857d" x="238.887253" y="52.138296" style="stroke: #000000"/>
     <use xlink:href="#mcf731b857d" x="294.034323" y="51.3474" style="stroke: #000000"/>
     <use xlink:href="#mcf731b857d" x="349.181394" y="54.752644" style="stroke: #000000"/>
     <use xlink:href="#mcf731b857d" x="404.328465" y="62.090395" style="stroke: #000000"/>
     <use xlink:href="#mcf731b857d" x="459.475535" y="74.503058" style="stroke: #000000"/>
     <use xlink:href="#mcf731b857d" x="514.622606" y="84.69682" style="stroke: #000000"/>
     <use xlink:href="#mcf731b857d" x="569.769677" y="98.581427" style="stroke: #000000"/>
     <use xlink:href="#mcf731b857d" x="624.916747" y="118.331842" style="stroke: #000000"/>
     <use xlink:href="#mcf731b857d" x="680.063818" y="123.560539" style="stroke: #000000"/>
    </g>
   </g>
   <g id="patch_3">
    <path d="M 158.924 212.843834 
L 158.924 15.12 
" style="fill: none; stroke: #000000; stroke-width: 0.8; stroke-linejoin: miter; stroke-linecap: square"/>
   </g>
   <g id="patch_4">
    <path d="M 704.88 212.843834 
L 704.88 15.12 
" style="fill: none; stroke: #000000; stroke-width: 0.8; stroke-linejoin: miter; stroke-linecap: square"/>
   </g>
   <g id="patch_5">
    <path d="M 158.924 212.843834 
L 704.88 212.843834 
" style="fill: none; stroke: #000000; stroke-width: 0.8; stroke-linejoin: miter; stroke-linecap: square"/>
   </g>
   <g id="patch_6">
    <path d="M 158.924 15.12 
L 704.88 15.12 
" style="fill: none; stroke: #000000; stroke-width: 0.8; stroke-linejoin: miter; stroke-linecap: square"/>
   </g>
   <g id="legend_1">
    <g id="patch_7">
     <path d="M 168.724 205.843834 
L 379.664625 205.843834 
Q 382.464625 205.843834 382.464625 203.043834 
L 382.464625 142.795709 
Q 382.464625 139.995709 379.664625 139.995709 
L 168.724 139.995709 
Q 165.924 139.995709 165.924 142.795709 
L 165.924 203.043834 
Q 165.924 205.843834 168.724 205.843834 
z
" style="fill: #ffffff; opacity: 0.8; stroke: #cccccc; stroke-linejoin: miter"/>
    </g>
    <g id="line2d_40">
     <path d="M 171.524 151.333522 
L 185.524 151.333522 
L 199.524 151.333522 
" style="fill: none; stroke-dasharray: 7.4,3.2; stroke-dashoffset: 0; stroke: #0000ff; stroke-width: 2"/>
    </g>
    <g id="text_18">
     <!-- No clustering -->
     <g transform="translate(210.724 156.233522) scale(0.14 -0.14)">
      <defs>
       <path id="DejaVuSans-4e" d="M 628 4666 
L 1478 4666 
L 3547 763 
L 3547 4666 
L 4159 4666 
L 4159 0 
L 3309 0 
L 1241 3903 
L 1241 0 
L 628 0 
L 628 4666 
z
" transform="scale(0.015625)"/>
      </defs>
      <use xlink:href="#DejaVuSans-4e"/>
      <use xlink:href="#DejaVuSans-6f" x="74.804688"/>
      <use xlink:href="#DejaVuSans-20" x="135.986328"/>
      <use xlink:href="#DejaVuSans-63" x="167.773438"/>
      <use xlink:href="#DejaVuSans-6c" x="222.753906"/>
      <use xlink:href="#DejaVuSans-75" x="250.537109"/>
      <use xlink:href="#DejaVuSans-73" x="313.916016"/>
      <use xlink:href="#DejaVuSans-74" x="366.015625"/>
      <use xlink:href="#DejaVuSans-65" x="405.224609"/>
      <use xlink:href="#DejaVuSans-72" x="466.748047"/>
      <use xlink:href="#DejaVuSans-69" x="507.861328"/>
      <use xlink:href="#DejaVuSans-6e" x="535.644531"/>
      <use xlink:href="#DejaVuSans-67" x="599.023438"/>
     </g>
    </g>
    <g id="LineCollection_3">
     <path d="M 185.524 178.882897 
L 185.524 164.882897 
" style="fill: none; stroke: #808080; stroke-width: 1.5"/>
    </g>
    <g id="line2d_41">
     <g>
      <use xlink:href="#m9a2f812d22" x="185.524" y="178.882897" style="fill: #808080; stroke: #808080"/>
     </g>
    </g>
    <g id="line2d_42">
     <g>
      <use xlink:href="#m9a2f812d22" x="185.524" y="164.882897" style="fill: #808080; stroke: #808080"/>
     </g>
    </g>
    <g id="line2d_43">
     <path d="M 171.524 171.882897 
L 199.524 171.882897 
" style="fill: none; stroke: #800080; stroke-width: 1.5; stroke-linecap: square"/>
    </g>
    <g id="line2d_44">
     <g>
      <use xlink:href="#m1df465f449" x="185.524" y="171.882897" style="fill: #800080; stroke: #800080"/>
     </g>
    </g>
    <g id="text_19">
     <!-- Moving average (n=10) -->
     <g transform="translate(210.724 176.782897) scale(0.14 -0.14)">
      <defs>
       <path id="DejaVuSans-28" d="M 1984 4856 
Q 1566 4138 1362 3434 
Q 1159 2731 1159 2009 
Q 1159 1288 1364 580 
Q 1569 -128 1984 -844 
L 1484 -844 
Q 1016 -109 783 600 
Q 550 1309 550 2009 
Q 550 2706 781 3412 
Q 1013 4119 1484 4856 
L 1984 4856 
z
" transform="scale(0.015625)"/>
       <path id="DejaVuSans-3d" d="M 678 2906 
L 4684 2906 
L 4684 2381 
L 678 2381 
L 678 2906 
z
M 678 1631 
L 4684 1631 
L 4684 1100 
L 678 1100 
L 678 1631 
z
" transform="scale(0.015625)"/>
       <path id="DejaVuSans-29" d="M 513 4856 
L 1013 4856 
Q 1481 4119 1714 3412 
Q 1947 2706 1947 2009 
Q 1947 1309 1714 600 
Q 1481 -109 1013 -844 
L 513 -844 
Q 928 -128 1133 580 
Q 1338 1288 1338 2009 
Q 1338 2731 1133 3434 
Q 928 4138 513 4856 
z
" transform="scale(0.015625)"/>
      </defs>
      <use xlink:href="#DejaVuSans-4d"/>
      <use xlink:href="#DejaVuSans-6f" x="86.279297"/>
      <use xlink:href="#DejaVuSans-76" x="147.460938"/>
      <use xlink:href="#DejaVuSans-69" x="206.640625"/>
      <use xlink:href="#DejaVuSans-6e" x="234.423828"/>
      <use xlink:href="#DejaVuSans-67" x="297.802734"/>
      <use xlink:href="#DejaVuSans-20" x="361.279297"/>
      <use xlink:href="#DejaVuSans-61" x="393.066406"/>
      <use xlink:href="#DejaVuSans-76" x="454.345703"/>
      <use xlink:href="#DejaVuSans-65" x="513.525391"/>
      <use xlink:href="#DejaVuSans-72" x="575.048828"/>
      <use xlink:href="#DejaVuSans-61" x="616.162109"/>
      <use xlink:href="#DejaVuSans-67" x="677.441406"/>
      <use xlink:href="#DejaVuSans-65" x="740.917969"/>
      <use xlink:href="#DejaVuSans-20" x="802.441406"/>
      <use xlink:href="#DejaVuSans-28" x="834.228516"/>
      <use xlink:href="#DejaVuSans-6e" x="873.242188"/>
      <use xlink:href="#DejaVuSans-3d" x="936.621094"/>
      <use xlink:href="#DejaVuSans-31" x="1020.410156"/>
      <use xlink:href="#DejaVuSans-30" x="1084.033203"/>
      <use xlink:href="#DejaVuSans-29" x="1147.65625"/>
     </g>
    </g>
    <g id="LineCollection_4">
     <path d="M 185.524 199.432272 
L 185.524 185.432272 
" style="fill: none; stroke: #808080; stroke-width: 1.5"/>
    </g>
    <g id="line2d_45">
     <g>
      <use xlink:href="#m9a2f812d22" x="185.524" y="199.432272" style="fill: #808080; stroke: #808080"/>
     </g>
    </g>
    <g id="line2d_46">
     <g>
      <use xlink:href="#m9a2f812d22" x="185.524" y="185.432272" style="fill: #808080; stroke: #808080"/>
     </g>
    </g>
    <g id="line2d_47">
     <path d="M 171.524 192.432272 
L 199.524 192.432272 
" style="fill: none; stroke: #000000; stroke-width: 1.5; stroke-linecap: square"/>
    </g>
    <g id="line2d_48">
     <g>
      <use xlink:href="#mcf731b857d" x="185.524" y="192.432272" style="stroke: #000000"/>
     </g>
    </g>
    <g id="text_20">
     <!-- Raw value -->
     <g transform="translate(210.724 197.332272) scale(0.14 -0.14)">
      <defs>
       <path id="DejaVuSans-52" d="M 2841 2188 
Q 3044 2119 3236 1894 
Q 3428 1669 3622 1275 
L 4263 0 
L 3584 0 
L 2988 1197 
Q 2756 1666 2539 1819 
Q 2322 1972 1947 1972 
L 1259 1972 
L 1259 0 
L 628 0 
L 628 4666 
L 2053 4666 
Q 2853 4666 3247 4331 
Q 3641 3997 3641 3322 
Q 3641 2881 3436 2590 
Q 3231 2300 2841 2188 
z
M 1259 4147 
L 1259 2491 
L 2053 2491 
Q 2509 2491 2742 2702 
Q 2975 2913 2975 3322 
Q 2975 3731 2742 3939 
Q 2509 4147 2053 4147 
L 1259 4147 
z
" transform="scale(0.015625)"/>
       <path id="DejaVuSans-77" d="M 269 3500 
L 844 3500 
L 1563 769 
L 2278 3500 
L 2956 3500 
L 3675 769 
L 4391 3500 
L 4966 3500 
L 4050 0 
L 3372 0 
L 2619 2869 
L 1863 0 
L 1184 0 
L 269 3500 
z
" transform="scale(0.015625)"/>
      </defs>
      <use xlink:href="#DejaVuSans-52"/>
      <use xlink:href="#DejaVuSans-61" x="67.232422"/>
      <use xlink:href="#DejaVuSans-77" x="128.511719"/>
      <use xlink:href="#DejaVuSans-20" x="210.298828"/>
      <use xlink:href="#DejaVuSans-76" x="242.085938"/>
      <use xlink:href="#DejaVuSans-61" x="301.265625"/>
      <use xlink:href="#DejaVuSans-6c" x="362.544922"/>
      <use xlink:href="#DejaVuSans-75" x="390.328125"/>
      <use xlink:href="#DejaVuSans-65" x="453.707031"/>
     </g>
    </g>
   </g>
  </g>
 </g>
 <defs>
  <clipPath id="p1fd1ad5732">
   <rect x="158.924" y="15.12" width="545.956" height="197.723834"/>
  </clipPath>
 </defs>
</svg>
