<?xml version="1.0" encoding="utf-8" standalone="no"?>
<!DOCTYPE svg PUBLIC "-//W3C//DTD SVG 1.1//EN"
  "http://www.w3.org/Graphics/SVG/1.1/DTD/svg11.dtd">
<svg xmlns:xlink="http://www.w3.org/1999/xlink" width="720pt" height="360pt" viewBox="0 0 720 360" xmlns="http://www.w3.org/2000/svg" version="1.1">
 <metadata>
  <rdf:RDF xmlns:dc="http://purl.org/dc/elements/1.1/" xmlns:cc="http://creativecommons.org/ns#" xmlns:rdf="http://www.w3.org/1999/02/22-rdf-syntax-ns#">
   <cc:Work>
    <dc:type rdf:resource="http://purl.org/dc/dcmitype/StillImage"/>
    <dc:date>2023-04-03T13:46:17.408262</dc:date>
    <dc:format>image/svg+xml</dc:format>
    <dc:creator>
     <cc:Agent>
      <dc:title>Matplotlib v3.7.0, https://matplotlib.org/</dc:title>
     </cc:Agent>
    </dc:creator>
   </cc:Work>
  </rdf:RDF>
 </metadata>
 <defs>
  <style type="text/css">*{stroke-linejoin: round; stroke-linecap: butt}</style>
 </defs>
 <g id="figure_1">
  <g id="patch_1">
   <path d="M 0 360 
L 720 360 
L 720 0 
L 0 0 
z
" style="fill: #ffffff"/>
  </g>
  <g id="axes_1">
   <g id="patch_2">
    <path d="M 138.908 291.016877 
L 704.88 291.016877 
L 704.88 20.52 
L 138.908 20.52 
z
" style="fill: #ffffff"/>
   </g>
   <g id="matplotlib.axis_1">
    <g id="xtick_1">
     <g id="line2d_1">
      <path d="M 164.634 291.016877 
L 164.634 20.52 
" clip-path="url(#p774ebd78d0)" style="fill: none; stroke-dasharray: 2.96,1.28; stroke-dashoffset: 0; stroke: #b0b0b0; stroke-width: 0.8"/>
     </g>
     <g id="line2d_2">
      <defs>
       <path id="mdfaf783b6e" d="M 0 0 
L 0 3.5 
" style="stroke: #000000; stroke-width: 0.8"/>
      </defs>
      <g>
       <use xlink:href="#mdfaf783b6e" x="164.634" y="291.016877" style="stroke: #000000; stroke-width: 0.8"/>
      </g>
     </g>
     <g id="text_1">
      <!-- 2 -->
      <g transform="translate(164.216365 311.8375) rotate(-45) scale(0.14 -0.14)">
       <defs>
        <path id="DejaVuSans-32" d="M 1228 531 
L 3431 531 
L 3431 0 
L 469 0 
L 469 531 
Q 828 903 1448 1529 
Q 2069 2156 2228 2338 
Q 2531 2678 2651 2914 
Q 2772 3150 2772 3378 
Q 2772 3750 2511 3984 
Q 2250 4219 1831 4219 
Q 1534 4219 1204 4116 
Q 875 4013 500 3803 
L 500 4441 
Q 881 4594 1212 4672 
Q 1544 4750 1819 4750 
Q 2544 4750 2975 4387 
Q 3406 4025 3406 3419 
Q 3406 3131 3298 2873 
Q 3191 2616 2906 2266 
Q 2828 2175 2409 1742 
Q 1991 1309 1228 531 
z
" transform="scale(0.015625)"/>
       </defs>
       <use xlink:href="#DejaVuSans-32"/>
      </g>
     </g>
    </g>
    <g id="xtick_2">
     <g id="line2d_3">
      <path d="M 228.949 291.016877 
L 228.949 20.52 
" clip-path="url(#p774ebd78d0)" style="fill: none; stroke-dasharray: 2.96,1.28; stroke-dashoffset: 0; stroke: #b0b0b0; stroke-width: 0.8"/>
     </g>
     <g id="line2d_4">
      <g>
       <use xlink:href="#mdfaf783b6e" x="228.949" y="291.016877" style="stroke: #000000; stroke-width: 0.8"/>
      </g>
     </g>
     <g id="text_2">
      <!-- 2.5 -->
      <g transform="translate(223.808997 321.282237) rotate(-45) scale(0.14 -0.14)">
       <defs>
        <path id="DejaVuSans-2e" d="M 684 794 
L 1344 794 
L 1344 0 
L 684 0 
L 684 794 
z
" transform="scale(0.015625)"/>
        <path id="DejaVuSans-35" d="M 691 4666 
L 3169 4666 
L 3169 4134 
L 1269 4134 
L 1269 2991 
Q 1406 3038 1543 3061 
Q 1681 3084 1819 3084 
Q 2600 3084 3056 2656 
Q 3513 2228 3513 1497 
Q 3513 744 3044 326 
Q 2575 -91 1722 -91 
Q 1428 -91 1123 -41 
Q 819 9 494 109 
L 494 744 
Q 775 591 1075 516 
Q 1375 441 1709 441 
Q 2250 441 2565 725 
Q 2881 1009 2881 1497 
Q 2881 1984 2565 2268 
Q 2250 2553 1709 2553 
Q 1456 2553 1204 2497 
Q 953 2441 691 2322 
L 691 4666 
z
" transform="scale(0.015625)"/>
       </defs>
       <use xlink:href="#DejaVuSans-32"/>
       <use xlink:href="#DejaVuSans-2e" x="63.623047"/>
       <use xlink:href="#DejaVuSans-35" x="95.410156"/>
      </g>
     </g>
    </g>
    <g id="xtick_3">
     <g id="line2d_5">
      <path d="M 293.264 291.016877 
L 293.264 20.52 
" clip-path="url(#p774ebd78d0)" style="fill: none; stroke-dasharray: 2.96,1.28; stroke-dashoffset: 0; stroke: #b0b0b0; stroke-width: 0.8"/>
     </g>
     <g id="line2d_6">
      <g>
       <use xlink:href="#mdfaf783b6e" x="293.264" y="291.016877" style="stroke: #000000; stroke-width: 0.8"/>
      </g>
     </g>
     <g id="text_3">
      <!-- 3 -->
      <g transform="translate(292.846365 311.8375) rotate(-45) scale(0.14 -0.14)">
       <defs>
        <path id="DejaVuSans-33" d="M 2597 2516 
Q 3050 2419 3304 2112 
Q 3559 1806 3559 1356 
Q 3559 666 3084 287 
Q 2609 -91 1734 -91 
Q 1441 -91 1130 -33 
Q 819 25 488 141 
L 488 750 
Q 750 597 1062 519 
Q 1375 441 1716 441 
Q 2309 441 2620 675 
Q 2931 909 2931 1356 
Q 2931 1769 2642 2001 
Q 2353 2234 1838 2234 
L 1294 2234 
L 1294 2753 
L 1863 2753 
Q 2328 2753 2575 2939 
Q 2822 3125 2822 3475 
Q 2822 3834 2567 4026 
Q 2313 4219 1838 4219 
Q 1578 4219 1281 4162 
Q 984 4106 628 3988 
L 628 4550 
Q 988 4650 1302 4700 
Q 1616 4750 1894 4750 
Q 2613 4750 3031 4423 
Q 3450 4097 3450 3541 
Q 3450 3153 3228 2886 
Q 3006 2619 2597 2516 
z
" transform="scale(0.015625)"/>
       </defs>
       <use xlink:href="#DejaVuSans-33"/>
      </g>
     </g>
    </g>
    <g id="xtick_4">
     <g id="line2d_7">
      <path d="M 357.579 291.016877 
L 357.579 20.52 
" clip-path="url(#p774ebd78d0)" style="fill: none; stroke-dasharray: 2.96,1.28; stroke-dashoffset: 0; stroke: #b0b0b0; stroke-width: 0.8"/>
     </g>
     <g id="line2d_8">
      <g>
       <use xlink:href="#mdfaf783b6e" x="357.579" y="291.016877" style="stroke: #000000; stroke-width: 0.8"/>
      </g>
     </g>
     <g id="text_4">
      <!-- 3.5 -->
      <g transform="translate(352.438997 321.282237) rotate(-45) scale(0.14 -0.14)">
       <use xlink:href="#DejaVuSans-33"/>
       <use xlink:href="#DejaVuSans-2e" x="63.623047"/>
       <use xlink:href="#DejaVuSans-35" x="95.410156"/>
      </g>
     </g>
    </g>
    <g id="xtick_5">
     <g id="line2d_9">
      <path d="M 421.894 291.016877 
L 421.894 20.52 
" clip-path="url(#p774ebd78d0)" style="fill: none; stroke-dasharray: 2.96,1.28; stroke-dashoffset: 0; stroke: #b0b0b0; stroke-width: 0.8"/>
     </g>
     <g id="line2d_10">
      <g>
       <use xlink:href="#mdfaf783b6e" x="421.894" y="291.016877" style="stroke: #000000; stroke-width: 0.8"/>
      </g>
     </g>
     <g id="text_5">
      <!-- 4 -->
      <g transform="translate(421.476365 311.8375) rotate(-45) scale(0.14 -0.14)">
       <defs>
        <path id="DejaVuSans-34" d="M 2419 4116 
L 825 1625 
L 2419 1625 
L 2419 4116 
z
M 2253 4666 
L 3047 4666 
L 3047 1625 
L 3713 1625 
L 3713 1100 
L 3047 1100 
L 3047 0 
L 2419 0 
L 2419 1100 
L 313 1100 
L 313 1709 
L 2253 4666 
z
" transform="scale(0.015625)"/>
       </defs>
       <use xlink:href="#DejaVuSans-34"/>
      </g>
     </g>
    </g>
    <g id="xtick_6">
     <g id="line2d_11">
      <path d="M 486.209 291.016877 
L 486.209 20.52 
" clip-path="url(#p774ebd78d0)" style="fill: none; stroke-dasharray: 2.96,1.28; stroke-dashoffset: 0; stroke: #b0b0b0; stroke-width: 0.8"/>
     </g>
     <g id="line2d_12">
      <g>
       <use xlink:href="#mdfaf783b6e" x="486.209" y="291.016877" style="stroke: #000000; stroke-width: 0.8"/>
      </g>
     </g>
     <g id="text_6">
      <!-- 4.5 -->
      <g transform="translate(481.068997 321.282237) rotate(-45) scale(0.14 -0.14)">
       <use xlink:href="#DejaVuSans-34"/>
       <use xlink:href="#DejaVuSans-2e" x="63.623047"/>
       <use xlink:href="#DejaVuSans-35" x="95.410156"/>
      </g>
     </g>
    </g>
    <g id="xtick_7">
     <g id="line2d_13">
      <path d="M 550.524 291.016877 
L 550.524 20.52 
" clip-path="url(#p774ebd78d0)" style="fill: none; stroke-dasharray: 2.96,1.28; stroke-dashoffset: 0; stroke: #b0b0b0; stroke-width: 0.8"/>
     </g>
     <g id="line2d_14">
      <g>
       <use xlink:href="#mdfaf783b6e" x="550.524" y="291.016877" style="stroke: #000000; stroke-width: 0.8"/>
      </g>
     </g>
     <g id="text_7">
      <!-- 5 -->
      <g transform="translate(550.106365 311.8375) rotate(-45) scale(0.14 -0.14)">
       <use xlink:href="#DejaVuSans-35"/>
      </g>
     </g>
    </g>
    <g id="xtick_8">
     <g id="line2d_15">
      <path d="M 614.839 291.016877 
L 614.839 20.52 
" clip-path="url(#p774ebd78d0)" style="fill: none; stroke-dasharray: 2.96,1.28; stroke-dashoffset: 0; stroke: #b0b0b0; stroke-width: 0.8"/>
     </g>
     <g id="line2d_16">
      <g>
       <use xlink:href="#mdfaf783b6e" x="614.839" y="291.016877" style="stroke: #000000; stroke-width: 0.8"/>
      </g>
     </g>
     <g id="text_8">
      <!-- 5.5 -->
      <g transform="translate(609.698997 321.282237) rotate(-45) scale(0.14 -0.14)">
       <use xlink:href="#DejaVuSans-35"/>
       <use xlink:href="#DejaVuSans-2e" x="63.623047"/>
       <use xlink:href="#DejaVuSans-35" x="95.410156"/>
      </g>
     </g>
    </g>
    <g id="xtick_9">
     <g id="line2d_17">
      <path d="M 679.154 291.016877 
L 679.154 20.52 
" clip-path="url(#p774ebd78d0)" style="fill: none; stroke-dasharray: 2.96,1.28; stroke-dashoffset: 0; stroke: #b0b0b0; stroke-width: 0.8"/>
     </g>
     <g id="line2d_18">
      <g>
       <use xlink:href="#mdfaf783b6e" x="679.154" y="291.016877" style="stroke: #000000; stroke-width: 0.8"/>
      </g>
     </g>
     <g id="text_9">
      <!-- 6 -->
      <g transform="translate(678.736365 311.8375) rotate(-45) scale(0.14 -0.14)">
       <defs>
        <path id="DejaVuSans-36" d="M 2113 2584 
Q 1688 2584 1439 2293 
Q 1191 2003 1191 1497 
Q 1191 994 1439 701 
Q 1688 409 2113 409 
Q 2538 409 2786 701 
Q 3034 994 3034 1497 
Q 3034 2003 2786 2293 
Q 2538 2584 2113 2584 
z
M 3366 4563 
L 3366 3988 
Q 3128 4100 2886 4159 
Q 2644 4219 2406 4219 
Q 1781 4219 1451 3797 
Q 1122 3375 1075 2522 
Q 1259 2794 1537 2939 
Q 1816 3084 2150 3084 
Q 2853 3084 3261 2657 
Q 3669 2231 3669 1497 
Q 3669 778 3244 343 
Q 2819 -91 2113 -91 
Q 1303 -91 875 529 
Q 447 1150 447 2328 
Q 447 3434 972 4092 
Q 1497 4750 2381 4750 
Q 2619 4750 2861 4703 
Q 3103 4656 3366 4563 
z
" transform="scale(0.015625)"/>
       </defs>
       <use xlink:href="#DejaVuSans-36"/>
      </g>
     </g>
    </g>
    <g id="text_10">
     <!-- maxClusterDistance parameter [m] -->
     <g transform="translate(261.965406 341.01821) scale(0.18 -0.18)">
      <defs>
       <path id="DejaVuSans-6d" d="M 3328 2828 
Q 3544 3216 3844 3400 
Q 4144 3584 4550 3584 
Q 5097 3584 5394 3201 
Q 5691 2819 5691 2113 
L 5691 0 
L 5113 0 
L 5113 2094 
Q 5113 2597 4934 2840 
Q 4756 3084 4391 3084 
Q 3944 3084 3684 2787 
Q 3425 2491 3425 1978 
L 3425 0 
L 2847 0 
L 2847 2094 
Q 2847 2600 2669 2842 
Q 2491 3084 2119 3084 
Q 1678 3084 1418 2786 
Q 1159 2488 1159 1978 
L 1159 0 
L 581 0 
L 581 3500 
L 1159 3500 
L 1159 2956 
Q 1356 3278 1631 3431 
Q 1906 3584 2284 3584 
Q 2666 3584 2933 3390 
Q 3200 3197 3328 2828 
z
" transform="scale(0.015625)"/>
       <path id="DejaVuSans-61" d="M 2194 1759 
Q 1497 1759 1228 1600 
Q 959 1441 959 1056 
Q 959 750 1161 570 
Q 1363 391 1709 391 
Q 2188 391 2477 730 
Q 2766 1069 2766 1631 
L 2766 1759 
L 2194 1759 
z
M 3341 1997 
L 3341 0 
L 2766 0 
L 2766 531 
Q 2569 213 2275 61 
Q 1981 -91 1556 -91 
Q 1019 -91 701 211 
Q 384 513 384 1019 
Q 384 1609 779 1909 
Q 1175 2209 1959 2209 
L 2766 2209 
L 2766 2266 
Q 2766 2663 2505 2880 
Q 2244 3097 1772 3097 
Q 1472 3097 1187 3025 
Q 903 2953 641 2809 
L 641 3341 
Q 956 3463 1253 3523 
Q 1550 3584 1831 3584 
Q 2591 3584 2966 3190 
Q 3341 2797 3341 1997 
z
" transform="scale(0.015625)"/>
       <path id="DejaVuSans-78" d="M 3513 3500 
L 2247 1797 
L 3578 0 
L 2900 0 
L 1881 1375 
L 863 0 
L 184 0 
L 1544 1831 
L 300 3500 
L 978 3500 
L 1906 2253 
L 2834 3500 
L 3513 3500 
z
" transform="scale(0.015625)"/>
       <path id="DejaVuSans-43" d="M 4122 4306 
L 4122 3641 
Q 3803 3938 3442 4084 
Q 3081 4231 2675 4231 
Q 1875 4231 1450 3742 
Q 1025 3253 1025 2328 
Q 1025 1406 1450 917 
Q 1875 428 2675 428 
Q 3081 428 3442 575 
Q 3803 722 4122 1019 
L 4122 359 
Q 3791 134 3420 21 
Q 3050 -91 2638 -91 
Q 1578 -91 968 557 
Q 359 1206 359 2328 
Q 359 3453 968 4101 
Q 1578 4750 2638 4750 
Q 3056 4750 3426 4639 
Q 3797 4528 4122 4306 
z
" transform="scale(0.015625)"/>
       <path id="DejaVuSans-6c" d="M 603 4863 
L 1178 4863 
L 1178 0 
L 603 0 
L 603 4863 
z
" transform="scale(0.015625)"/>
       <path id="DejaVuSans-75" d="M 544 1381 
L 544 3500 
L 1119 3500 
L 1119 1403 
Q 1119 906 1312 657 
Q 1506 409 1894 409 
Q 2359 409 2629 706 
Q 2900 1003 2900 1516 
L 2900 3500 
L 3475 3500 
L 3475 0 
L 2900 0 
L 2900 538 
Q 2691 219 2414 64 
Q 2138 -91 1772 -91 
Q 1169 -91 856 284 
Q 544 659 544 1381 
z
M 1991 3584 
L 1991 3584 
z
" transform="scale(0.015625)"/>
       <path id="DejaVuSans-73" d="M 2834 3397 
L 2834 2853 
Q 2591 2978 2328 3040 
Q 2066 3103 1784 3103 
Q 1356 3103 1142 2972 
Q 928 2841 928 2578 
Q 928 2378 1081 2264 
Q 1234 2150 1697 2047 
L 1894 2003 
Q 2506 1872 2764 1633 
Q 3022 1394 3022 966 
Q 3022 478 2636 193 
Q 2250 -91 1575 -91 
Q 1294 -91 989 -36 
Q 684 19 347 128 
L 347 722 
Q 666 556 975 473 
Q 1284 391 1588 391 
Q 1994 391 2212 530 
Q 2431 669 2431 922 
Q 2431 1156 2273 1281 
Q 2116 1406 1581 1522 
L 1381 1569 
Q 847 1681 609 1914 
Q 372 2147 372 2553 
Q 372 3047 722 3315 
Q 1072 3584 1716 3584 
Q 2034 3584 2315 3537 
Q 2597 3491 2834 3397 
z
" transform="scale(0.015625)"/>
       <path id="DejaVuSans-74" d="M 1172 4494 
L 1172 3500 
L 2356 3500 
L 2356 3053 
L 1172 3053 
L 1172 1153 
Q 1172 725 1289 603 
Q 1406 481 1766 481 
L 2356 481 
L 2356 0 
L 1766 0 
Q 1100 0 847 248 
Q 594 497 594 1153 
L 594 3053 
L 172 3053 
L 172 3500 
L 594 3500 
L 594 4494 
L 1172 4494 
z
" transform="scale(0.015625)"/>
       <path id="DejaVuSans-65" d="M 3597 1894 
L 3597 1613 
L 953 1613 
Q 991 1019 1311 708 
Q 1631 397 2203 397 
Q 2534 397 2845 478 
Q 3156 559 3463 722 
L 3463 178 
Q 3153 47 2828 -22 
Q 2503 -91 2169 -91 
Q 1331 -91 842 396 
Q 353 884 353 1716 
Q 353 2575 817 3079 
Q 1281 3584 2069 3584 
Q 2775 3584 3186 3129 
Q 3597 2675 3597 1894 
z
M 3022 2063 
Q 3016 2534 2758 2815 
Q 2500 3097 2075 3097 
Q 1594 3097 1305 2825 
Q 1016 2553 972 2059 
L 3022 2063 
z
" transform="scale(0.015625)"/>
       <path id="DejaVuSans-72" d="M 2631 2963 
Q 2534 3019 2420 3045 
Q 2306 3072 2169 3072 
Q 1681 3072 1420 2755 
Q 1159 2438 1159 1844 
L 1159 0 
L 581 0 
L 581 3500 
L 1159 3500 
L 1159 2956 
Q 1341 3275 1631 3429 
Q 1922 3584 2338 3584 
Q 2397 3584 2469 3576 
Q 2541 3569 2628 3553 
L 2631 2963 
z
" transform="scale(0.015625)"/>
       <path id="DejaVuSans-44" d="M 1259 4147 
L 1259 519 
L 2022 519 
Q 2988 519 3436 956 
Q 3884 1394 3884 2338 
Q 3884 3275 3436 3711 
Q 2988 4147 2022 4147 
L 1259 4147 
z
M 628 4666 
L 1925 4666 
Q 3281 4666 3915 4102 
Q 4550 3538 4550 2338 
Q 4550 1131 3912 565 
Q 3275 0 1925 0 
L 628 0 
L 628 4666 
z
" transform="scale(0.015625)"/>
       <path id="DejaVuSans-69" d="M 603 3500 
L 1178 3500 
L 1178 0 
L 603 0 
L 603 3500 
z
M 603 4863 
L 1178 4863 
L 1178 4134 
L 603 4134 
L 603 4863 
z
" transform="scale(0.015625)"/>
       <path id="DejaVuSans-6e" d="M 3513 2113 
L 3513 0 
L 2938 0 
L 2938 2094 
Q 2938 2591 2744 2837 
Q 2550 3084 2163 3084 
Q 1697 3084 1428 2787 
Q 1159 2491 1159 1978 
L 1159 0 
L 581 0 
L 581 3500 
L 1159 3500 
L 1159 2956 
Q 1366 3272 1645 3428 
Q 1925 3584 2291 3584 
Q 2894 3584 3203 3211 
Q 3513 2838 3513 2113 
z
" transform="scale(0.015625)"/>
       <path id="DejaVuSans-63" d="M 3122 3366 
L 3122 2828 
Q 2878 2963 2633 3030 
Q 2388 3097 2138 3097 
Q 1578 3097 1268 2742 
Q 959 2388 959 1747 
Q 959 1106 1268 751 
Q 1578 397 2138 397 
Q 2388 397 2633 464 
Q 2878 531 3122 666 
L 3122 134 
Q 2881 22 2623 -34 
Q 2366 -91 2075 -91 
Q 1284 -91 818 406 
Q 353 903 353 1747 
Q 353 2603 823 3093 
Q 1294 3584 2113 3584 
Q 2378 3584 2631 3529 
Q 2884 3475 3122 3366 
z
" transform="scale(0.015625)"/>
       <path id="DejaVuSans-20" transform="scale(0.015625)"/>
       <path id="DejaVuSans-70" d="M 1159 525 
L 1159 -1331 
L 581 -1331 
L 581 3500 
L 1159 3500 
L 1159 2969 
Q 1341 3281 1617 3432 
Q 1894 3584 2278 3584 
Q 2916 3584 3314 3078 
Q 3713 2572 3713 1747 
Q 3713 922 3314 415 
Q 2916 -91 2278 -91 
Q 1894 -91 1617 61 
Q 1341 213 1159 525 
z
M 3116 1747 
Q 3116 2381 2855 2742 
Q 2594 3103 2138 3103 
Q 1681 3103 1420 2742 
Q 1159 2381 1159 1747 
Q 1159 1113 1420 752 
Q 1681 391 2138 391 
Q 2594 391 2855 752 
Q 3116 1113 3116 1747 
z
" transform="scale(0.015625)"/>
       <path id="DejaVuSans-5b" d="M 550 4863 
L 1875 4863 
L 1875 4416 
L 1125 4416 
L 1125 -397 
L 1875 -397 
L 1875 -844 
L 550 -844 
L 550 4863 
z
" transform="scale(0.015625)"/>
       <path id="DejaVuSans-5d" d="M 1947 4863 
L 1947 -844 
L 622 -844 
L 622 -397 
L 1369 -397 
L 1369 4416 
L 622 4416 
L 622 4863 
L 1947 4863 
z
" transform="scale(0.015625)"/>
      </defs>
      <use xlink:href="#DejaVuSans-6d"/>
      <use xlink:href="#DejaVuSans-61" x="97.412109"/>
      <use xlink:href="#DejaVuSans-78" x="158.691406"/>
      <use xlink:href="#DejaVuSans-43" x="217.871094"/>
      <use xlink:href="#DejaVuSans-6c" x="287.695312"/>
      <use xlink:href="#DejaVuSans-75" x="315.478516"/>
      <use xlink:href="#DejaVuSans-73" x="378.857422"/>
      <use xlink:href="#DejaVuSans-74" x="430.957031"/>
      <use xlink:href="#DejaVuSans-65" x="470.166016"/>
      <use xlink:href="#DejaVuSans-72" x="531.689453"/>
      <use xlink:href="#DejaVuSans-44" x="572.802734"/>
      <use xlink:href="#DejaVuSans-69" x="649.804688"/>
      <use xlink:href="#DejaVuSans-73" x="677.587891"/>
      <use xlink:href="#DejaVuSans-74" x="729.6875"/>
      <use xlink:href="#DejaVuSans-61" x="768.896484"/>
      <use xlink:href="#DejaVuSans-6e" x="830.175781"/>
      <use xlink:href="#DejaVuSans-63" x="893.554688"/>
      <use xlink:href="#DejaVuSans-65" x="948.535156"/>
      <use xlink:href="#DejaVuSans-20" x="1010.058594"/>
      <use xlink:href="#DejaVuSans-70" x="1041.845703"/>
      <use xlink:href="#DejaVuSans-61" x="1105.322266"/>
      <use xlink:href="#DejaVuSans-72" x="1166.601562"/>
      <use xlink:href="#DejaVuSans-61" x="1207.714844"/>
      <use xlink:href="#DejaVuSans-6d" x="1268.994141"/>
      <use xlink:href="#DejaVuSans-65" x="1366.40625"/>
      <use xlink:href="#DejaVuSans-74" x="1427.929688"/>
      <use xlink:href="#DejaVuSans-65" x="1467.138672"/>
      <use xlink:href="#DejaVuSans-72" x="1528.662109"/>
      <use xlink:href="#DejaVuSans-20" x="1569.775391"/>
      <use xlink:href="#DejaVuSans-5b" x="1601.5625"/>
      <use xlink:href="#DejaVuSans-6d" x="1640.576172"/>
      <use xlink:href="#DejaVuSans-5d" x="1737.988281"/>
     </g>
    </g>
   </g>
   <g id="matplotlib.axis_2">
    <g id="ytick_1">
     <g id="line2d_19">
      <path d="M 138.908 291.016877 
L 704.88 291.016877 
" clip-path="url(#p774ebd78d0)" style="fill: none; stroke-dasharray: 2.96,1.28; stroke-dashoffset: 0; stroke: #b0b0b0; stroke-width: 0.8"/>
     </g>
     <g id="line2d_20">
      <defs>
       <path id="m7a3cbf0f5c" d="M 0 0 
L -3.5 0 
" style="stroke: #000000; stroke-width: 0.8"/>
      </defs>
      <g>
       <use xlink:href="#m7a3cbf0f5c" x="138.908" y="291.016877" style="stroke: #000000; stroke-width: 0.8"/>
      </g>
     </g>
     <g id="text_11">
      <!-- 0 -->
      <g transform="translate(123.0005 296.335783) scale(0.14 -0.14)">
       <defs>
        <path id="DejaVuSans-30" d="M 2034 4250 
Q 1547 4250 1301 3770 
Q 1056 3291 1056 2328 
Q 1056 1369 1301 889 
Q 1547 409 2034 409 
Q 2525 409 2770 889 
Q 3016 1369 3016 2328 
Q 3016 3291 2770 3770 
Q 2525 4250 2034 4250 
z
M 2034 4750 
Q 2819 4750 3233 4129 
Q 3647 3509 3647 2328 
Q 3647 1150 3233 529 
Q 2819 -91 2034 -91 
Q 1250 -91 836 529 
Q 422 1150 422 2328 
Q 422 3509 836 4129 
Q 1250 4750 2034 4750 
z
" transform="scale(0.015625)"/>
       </defs>
       <use xlink:href="#DejaVuSans-30"/>
      </g>
     </g>
    </g>
    <g id="ytick_2">
     <g id="line2d_21">
      <path d="M 138.908 252.374466 
L 704.88 252.374466 
" clip-path="url(#p774ebd78d0)" style="fill: none; stroke-dasharray: 2.96,1.28; stroke-dashoffset: 0; stroke: #b0b0b0; stroke-width: 0.8"/>
     </g>
     <g id="line2d_22">
      <g>
       <use xlink:href="#m7a3cbf0f5c" x="138.908" y="252.374466" style="stroke: #000000; stroke-width: 0.8"/>
      </g>
     </g>
     <g id="text_12">
      <!-- 1000 -->
      <g transform="translate(96.278 257.693372) scale(0.14 -0.14)">
       <defs>
        <path id="DejaVuSans-31" d="M 794 531 
L 1825 531 
L 1825 4091 
L 703 3866 
L 703 4441 
L 1819 4666 
L 2450 4666 
L 2450 531 
L 3481 531 
L 3481 0 
L 794 0 
L 794 531 
z
" transform="scale(0.015625)"/>
       </defs>
       <use xlink:href="#DejaVuSans-31"/>
       <use xlink:href="#DejaVuSans-30" x="63.623047"/>
       <use xlink:href="#DejaVuSans-30" x="127.246094"/>
       <use xlink:href="#DejaVuSans-30" x="190.869141"/>
      </g>
     </g>
    </g>
    <g id="ytick_3">
     <g id="line2d_23">
      <path d="M 138.908 213.732055 
L 704.88 213.732055 
" clip-path="url(#p774ebd78d0)" style="fill: none; stroke-dasharray: 2.96,1.28; stroke-dashoffset: 0; stroke: #b0b0b0; stroke-width: 0.8"/>
     </g>
     <g id="line2d_24">
      <g>
       <use xlink:href="#m7a3cbf0f5c" x="138.908" y="213.732055" style="stroke: #000000; stroke-width: 0.8"/>
      </g>
     </g>
     <g id="text_13">
      <!-- 2000 -->
      <g transform="translate(96.278 219.050961) scale(0.14 -0.14)">
       <use xlink:href="#DejaVuSans-32"/>
       <use xlink:href="#DejaVuSans-30" x="63.623047"/>
       <use xlink:href="#DejaVuSans-30" x="127.246094"/>
       <use xlink:href="#DejaVuSans-30" x="190.869141"/>
      </g>
     </g>
    </g>
    <g id="ytick_4">
     <g id="line2d_25">
      <path d="M 138.908 175.089644 
L 704.88 175.089644 
" clip-path="url(#p774ebd78d0)" style="fill: none; stroke-dasharray: 2.96,1.28; stroke-dashoffset: 0; stroke: #b0b0b0; stroke-width: 0.8"/>
     </g>
     <g id="line2d_26">
      <g>
       <use xlink:href="#m7a3cbf0f5c" x="138.908" y="175.089644" style="stroke: #000000; stroke-width: 0.8"/>
      </g>
     </g>
     <g id="text_14">
      <!-- 3000 -->
      <g transform="translate(96.278 180.40855) scale(0.14 -0.14)">
       <use xlink:href="#DejaVuSans-33"/>
       <use xlink:href="#DejaVuSans-30" x="63.623047"/>
       <use xlink:href="#DejaVuSans-30" x="127.246094"/>
       <use xlink:href="#DejaVuSans-30" x="190.869141"/>
      </g>
     </g>
    </g>
    <g id="ytick_5">
     <g id="line2d_27">
      <path d="M 138.908 136.447233 
L 704.88 136.447233 
" clip-path="url(#p774ebd78d0)" style="fill: none; stroke-dasharray: 2.96,1.28; stroke-dashoffset: 0; stroke: #b0b0b0; stroke-width: 0.8"/>
     </g>
     <g id="line2d_28">
      <g>
       <use xlink:href="#m7a3cbf0f5c" x="138.908" y="136.447233" style="stroke: #000000; stroke-width: 0.8"/>
      </g>
     </g>
     <g id="text_15">
      <!-- 4000 -->
      <g transform="translate(96.278 141.766139) scale(0.14 -0.14)">
       <use xlink:href="#DejaVuSans-34"/>
       <use xlink:href="#DejaVuSans-30" x="63.623047"/>
       <use xlink:href="#DejaVuSans-30" x="127.246094"/>
       <use xlink:href="#DejaVuSans-30" x="190.869141"/>
      </g>
     </g>
    </g>
    <g id="ytick_6">
     <g id="line2d_29">
      <path d="M 138.908 97.804822 
L 704.88 97.804822 
" clip-path="url(#p774ebd78d0)" style="fill: none; stroke-dasharray: 2.96,1.28; stroke-dashoffset: 0; stroke: #b0b0b0; stroke-width: 0.8"/>
     </g>
     <g id="line2d_30">
      <g>
       <use xlink:href="#m7a3cbf0f5c" x="138.908" y="97.804822" style="stroke: #000000; stroke-width: 0.8"/>
      </g>
     </g>
     <g id="text_16">
      <!-- 5000 -->
      <g transform="translate(96.278 103.123728) scale(0.14 -0.14)">
       <use xlink:href="#DejaVuSans-35"/>
       <use xlink:href="#DejaVuSans-30" x="63.623047"/>
       <use xlink:href="#DejaVuSans-30" x="127.246094"/>
       <use xlink:href="#DejaVuSans-30" x="190.869141"/>
      </g>
     </g>
    </g>
    <g id="ytick_7">
     <g id="line2d_31">
      <path d="M 138.908 59.162411 
L 704.88 59.162411 
" clip-path="url(#p774ebd78d0)" style="fill: none; stroke-dasharray: 2.96,1.28; stroke-dashoffset: 0; stroke: #b0b0b0; stroke-width: 0.8"/>
     </g>
     <g id="line2d_32">
      <g>
       <use xlink:href="#m7a3cbf0f5c" x="138.908" y="59.162411" style="stroke: #000000; stroke-width: 0.8"/>
      </g>
     </g>
     <g id="text_17">
      <!-- 6000 -->
      <g transform="translate(96.278 64.481317) scale(0.14 -0.14)">
       <use xlink:href="#DejaVuSans-36"/>
       <use xlink:href="#DejaVuSans-30" x="63.623047"/>
       <use xlink:href="#DejaVuSans-30" x="127.246094"/>
       <use xlink:href="#DejaVuSans-30" x="190.869141"/>
      </g>
     </g>
    </g>
    <g id="ytick_8">
     <g id="line2d_33">
      <path d="M 138.908 20.52 
L 704.88 20.52 
" clip-path="url(#p774ebd78d0)" style="fill: none; stroke-dasharray: 2.96,1.28; stroke-dashoffset: 0; stroke: #b0b0b0; stroke-width: 0.8"/>
     </g>
     <g id="line2d_34">
      <g>
       <use xlink:href="#m7a3cbf0f5c" x="138.908" y="20.52" style="stroke: #000000; stroke-width: 0.8"/>
      </g>
     </g>
     <g id="text_18">
      <!-- 7000 -->
      <g transform="translate(96.278 25.838906) scale(0.14 -0.14)">
       <defs>
        <path id="DejaVuSans-37" d="M 525 4666 
L 3525 4666 
L 3525 4397 
L 1831 0 
L 1172 0 
L 2766 4134 
L 525 4134 
L 525 4666 
z
" transform="scale(0.015625)"/>
       </defs>
       <use xlink:href="#DejaVuSans-37"/>
       <use xlink:href="#DejaVuSans-30" x="63.623047"/>
       <use xlink:href="#DejaVuSans-30" x="127.246094"/>
       <use xlink:href="#DejaVuSans-30" x="190.869141"/>
      </g>
     </g>
    </g>
    <g id="text_19">
     <!--  -->
     <g transform="translate(28.066375 155.768438) rotate(-90) scale(0.18 -0.18)"/>
     <!-- Median number of messages -->
     <g transform="translate(48.222438 286.022345) rotate(-90) scale(0.18 -0.18)">
      <defs>
       <path id="DejaVuSans-4d" d="M 628 4666 
L 1569 4666 
L 2759 1491 
L 3956 4666 
L 4897 4666 
L 4897 0 
L 4281 0 
L 4281 4097 
L 3078 897 
L 2444 897 
L 1241 4097 
L 1241 0 
L 628 0 
L 628 4666 
z
" transform="scale(0.015625)"/>
       <path id="DejaVuSans-64" d="M 2906 2969 
L 2906 4863 
L 3481 4863 
L 3481 0 
L 2906 0 
L 2906 525 
Q 2725 213 2448 61 
Q 2172 -91 1784 -91 
Q 1150 -91 751 415 
Q 353 922 353 1747 
Q 353 2572 751 3078 
Q 1150 3584 1784 3584 
Q 2172 3584 2448 3432 
Q 2725 3281 2906 2969 
z
M 947 1747 
Q 947 1113 1208 752 
Q 1469 391 1925 391 
Q 2381 391 2643 752 
Q 2906 1113 2906 1747 
Q 2906 2381 2643 2742 
Q 2381 3103 1925 3103 
Q 1469 3103 1208 2742 
Q 947 2381 947 1747 
z
" transform="scale(0.015625)"/>
       <path id="DejaVuSans-62" d="M 3116 1747 
Q 3116 2381 2855 2742 
Q 2594 3103 2138 3103 
Q 1681 3103 1420 2742 
Q 1159 2381 1159 1747 
Q 1159 1113 1420 752 
Q 1681 391 2138 391 
Q 2594 391 2855 752 
Q 3116 1113 3116 1747 
z
M 1159 2969 
Q 1341 3281 1617 3432 
Q 1894 3584 2278 3584 
Q 2916 3584 3314 3078 
Q 3713 2572 3713 1747 
Q 3713 922 3314 415 
Q 2916 -91 2278 -91 
Q 1894 -91 1617 61 
Q 1341 213 1159 525 
L 1159 0 
L 581 0 
L 581 4863 
L 1159 4863 
L 1159 2969 
z
" transform="scale(0.015625)"/>
       <path id="DejaVuSans-6f" d="M 1959 3097 
Q 1497 3097 1228 2736 
Q 959 2375 959 1747 
Q 959 1119 1226 758 
Q 1494 397 1959 397 
Q 2419 397 2687 759 
Q 2956 1122 2956 1747 
Q 2956 2369 2687 2733 
Q 2419 3097 1959 3097 
z
M 1959 3584 
Q 2709 3584 3137 3096 
Q 3566 2609 3566 1747 
Q 3566 888 3137 398 
Q 2709 -91 1959 -91 
Q 1206 -91 779 398 
Q 353 888 353 1747 
Q 353 2609 779 3096 
Q 1206 3584 1959 3584 
z
" transform="scale(0.015625)"/>
       <path id="DejaVuSans-66" d="M 2375 4863 
L 2375 4384 
L 1825 4384 
Q 1516 4384 1395 4259 
Q 1275 4134 1275 3809 
L 1275 3500 
L 2222 3500 
L 2222 3053 
L 1275 3053 
L 1275 0 
L 697 0 
L 697 3053 
L 147 3053 
L 147 3500 
L 697 3500 
L 697 3744 
Q 697 4328 969 4595 
Q 1241 4863 1831 4863 
L 2375 4863 
z
" transform="scale(0.015625)"/>
       <path id="DejaVuSans-67" d="M 2906 1791 
Q 2906 2416 2648 2759 
Q 2391 3103 1925 3103 
Q 1463 3103 1205 2759 
Q 947 2416 947 1791 
Q 947 1169 1205 825 
Q 1463 481 1925 481 
Q 2391 481 2648 825 
Q 2906 1169 2906 1791 
z
M 3481 434 
Q 3481 -459 3084 -895 
Q 2688 -1331 1869 -1331 
Q 1566 -1331 1297 -1286 
Q 1028 -1241 775 -1147 
L 775 -588 
Q 1028 -725 1275 -790 
Q 1522 -856 1778 -856 
Q 2344 -856 2625 -561 
Q 2906 -266 2906 331 
L 2906 616 
Q 2728 306 2450 153 
Q 2172 0 1784 0 
Q 1141 0 747 490 
Q 353 981 353 1791 
Q 353 2603 747 3093 
Q 1141 3584 1784 3584 
Q 2172 3584 2450 3431 
Q 2728 3278 2906 2969 
L 2906 3500 
L 3481 3500 
L 3481 434 
z
" transform="scale(0.015625)"/>
      </defs>
      <use xlink:href="#DejaVuSans-4d"/>
      <use xlink:href="#DejaVuSans-65" x="86.279297"/>
      <use xlink:href="#DejaVuSans-64" x="147.802734"/>
      <use xlink:href="#DejaVuSans-69" x="211.279297"/>
      <use xlink:href="#DejaVuSans-61" x="239.0625"/>
      <use xlink:href="#DejaVuSans-6e" x="300.341797"/>
      <use xlink:href="#DejaVuSans-20" x="363.720703"/>
      <use xlink:href="#DejaVuSans-6e" x="395.507812"/>
      <use xlink:href="#DejaVuSans-75" x="458.886719"/>
      <use xlink:href="#DejaVuSans-6d" x="522.265625"/>
      <use xlink:href="#DejaVuSans-62" x="619.677734"/>
      <use xlink:href="#DejaVuSans-65" x="683.154297"/>
      <use xlink:href="#DejaVuSans-72" x="744.677734"/>
      <use xlink:href="#DejaVuSans-20" x="785.791016"/>
      <use xlink:href="#DejaVuSans-6f" x="817.578125"/>
      <use xlink:href="#DejaVuSans-66" x="878.759766"/>
      <use xlink:href="#DejaVuSans-20" x="913.964844"/>
      <use xlink:href="#DejaVuSans-6d" x="945.751953"/>
      <use xlink:href="#DejaVuSans-65" x="1043.164062"/>
      <use xlink:href="#DejaVuSans-73" x="1104.6875"/>
      <use xlink:href="#DejaVuSans-73" x="1156.787109"/>
      <use xlink:href="#DejaVuSans-61" x="1208.886719"/>
      <use xlink:href="#DejaVuSans-67" x="1270.166016"/>
      <use xlink:href="#DejaVuSans-65" x="1333.642578"/>
      <use xlink:href="#DejaVuSans-73" x="1395.166016"/>
     </g>
     <!-- received by vehicle nodes -->
     <g transform="translate(68.3785 273.195938) rotate(-90) scale(0.18 -0.18)">
      <defs>
       <path id="DejaVuSans-76" d="M 191 3500 
L 800 3500 
L 1894 563 
L 2988 3500 
L 3597 3500 
L 2284 0 
L 1503 0 
L 191 3500 
z
" transform="scale(0.015625)"/>
       <path id="DejaVuSans-79" d="M 2059 -325 
Q 1816 -950 1584 -1140 
Q 1353 -1331 966 -1331 
L 506 -1331 
L 506 -850 
L 844 -850 
Q 1081 -850 1212 -737 
Q 1344 -625 1503 -206 
L 1606 56 
L 191 3500 
L 800 3500 
L 1894 763 
L 2988 3500 
L 3597 3500 
L 2059 -325 
z
" transform="scale(0.015625)"/>
       <path id="DejaVuSans-68" d="M 3513 2113 
L 3513 0 
L 2938 0 
L 2938 2094 
Q 2938 2591 2744 2837 
Q 2550 3084 2163 3084 
Q 1697 3084 1428 2787 
Q 1159 2491 1159 1978 
L 1159 0 
L 581 0 
L 581 4863 
L 1159 4863 
L 1159 2956 
Q 1366 3272 1645 3428 
Q 1925 3584 2291 3584 
Q 2894 3584 3203 3211 
Q 3513 2838 3513 2113 
z
" transform="scale(0.015625)"/>
      </defs>
      <use xlink:href="#DejaVuSans-72"/>
      <use xlink:href="#DejaVuSans-65" x="38.863281"/>
      <use xlink:href="#DejaVuSans-63" x="100.386719"/>
      <use xlink:href="#DejaVuSans-65" x="155.367188"/>
      <use xlink:href="#DejaVuSans-69" x="216.890625"/>
      <use xlink:href="#DejaVuSans-76" x="244.673828"/>
      <use xlink:href="#DejaVuSans-65" x="303.853516"/>
      <use xlink:href="#DejaVuSans-64" x="365.376953"/>
      <use xlink:href="#DejaVuSans-20" x="428.853516"/>
      <use xlink:href="#DejaVuSans-62" x="460.640625"/>
      <use xlink:href="#DejaVuSans-79" x="524.117188"/>
      <use xlink:href="#DejaVuSans-20" x="583.296875"/>
      <use xlink:href="#DejaVuSans-76" x="615.083984"/>
      <use xlink:href="#DejaVuSans-65" x="674.263672"/>
      <use xlink:href="#DejaVuSans-68" x="735.787109"/>
      <use xlink:href="#DejaVuSans-69" x="799.166016"/>
      <use xlink:href="#DejaVuSans-63" x="826.949219"/>
      <use xlink:href="#DejaVuSans-6c" x="881.929688"/>
      <use xlink:href="#DejaVuSans-65" x="909.712891"/>
      <use xlink:href="#DejaVuSans-20" x="971.236328"/>
      <use xlink:href="#DejaVuSans-6e" x="1003.023438"/>
      <use xlink:href="#DejaVuSans-6f" x="1066.402344"/>
      <use xlink:href="#DejaVuSans-64" x="1127.583984"/>
      <use xlink:href="#DejaVuSans-65" x="1191.060547"/>
      <use xlink:href="#DejaVuSans-73" x="1252.583984"/>
     </g>
     <!-- +/- std. deviation -->
     <g transform="translate(88.534563 233.933438) rotate(-90) scale(0.18 -0.18)">
      <defs>
       <path id="DejaVuSans-2b" d="M 2944 4013 
L 2944 2272 
L 4684 2272 
L 4684 1741 
L 2944 1741 
L 2944 0 
L 2419 0 
L 2419 1741 
L 678 1741 
L 678 2272 
L 2419 2272 
L 2419 4013 
L 2944 4013 
z
" transform="scale(0.015625)"/>
       <path id="DejaVuSans-2f" d="M 1625 4666 
L 2156 4666 
L 531 -594 
L 0 -594 
L 1625 4666 
z
" transform="scale(0.015625)"/>
       <path id="DejaVuSans-2d" d="M 313 2009 
L 1997 2009 
L 1997 1497 
L 313 1497 
L 313 2009 
z
" transform="scale(0.015625)"/>
      </defs>
      <use xlink:href="#DejaVuSans-2b"/>
      <use xlink:href="#DejaVuSans-2f" x="83.789062"/>
      <use xlink:href="#DejaVuSans-2d" x="117.480469"/>
      <use xlink:href="#DejaVuSans-20" x="153.564453"/>
      <use xlink:href="#DejaVuSans-73" x="185.351562"/>
      <use xlink:href="#DejaVuSans-74" x="237.451172"/>
      <use xlink:href="#DejaVuSans-64" x="276.660156"/>
      <use xlink:href="#DejaVuSans-2e" x="340.136719"/>
      <use xlink:href="#DejaVuSans-20" x="371.923828"/>
      <use xlink:href="#DejaVuSans-64" x="403.710938"/>
      <use xlink:href="#DejaVuSans-65" x="467.1875"/>
      <use xlink:href="#DejaVuSans-76" x="528.710938"/>
      <use xlink:href="#DejaVuSans-69" x="587.890625"/>
      <use xlink:href="#DejaVuSans-61" x="615.673828"/>
      <use xlink:href="#DejaVuSans-74" x="676.953125"/>
      <use xlink:href="#DejaVuSans-69" x="716.162109"/>
      <use xlink:href="#DejaVuSans-6f" x="743.945312"/>
      <use xlink:href="#DejaVuSans-6e" x="805.126953"/>
     </g>
    </g>
   </g>
   <g id="line2d_35">
    <path d="M 138.908 71.527982 
L 704.88 71.527982 
" clip-path="url(#p774ebd78d0)" style="fill: none; stroke-dasharray: 11.1,4.8; stroke-dashoffset: 0; stroke: #0000ff; stroke-width: 3"/>
   </g>
   <g id="line2d_36">
    <path d="M 138.908 54.834461 
L 704.88 54.834461 
" clip-path="url(#p774ebd78d0)" style="fill: none; stroke-dasharray: 1.5,2.475; stroke-dashoffset: 0; stroke: #0000ff; stroke-width: 1.5"/>
   </g>
   <g id="line2d_37">
    <path d="M 138.908 88.221504 
L 704.88 88.221504 
" clip-path="url(#p774ebd78d0)" style="fill: none; stroke-dasharray: 1.5,2.475; stroke-dashoffset: 0; stroke: #0000ff; stroke-width: 1.5"/>
   </g>
   <g id="LineCollection_1">
    <path d="M 164.634 109.243063 
L 164.634 79.836013 
" clip-path="url(#p774ebd78d0)" style="fill: none; stroke: #808080; stroke-width: 1.5"/>
    <path d="M 228.949 122.642376 
L 228.949 95.611721 
" clip-path="url(#p774ebd78d0)" style="fill: none; stroke: #808080; stroke-width: 1.5"/>
    <path d="M 293.264 137.967378 
L 293.264 103.742662 
" clip-path="url(#p774ebd78d0)" style="fill: none; stroke: #808080; stroke-width: 1.5"/>
    <path d="M 357.579 145.967791 
L 357.579 112.358486 
" clip-path="url(#p774ebd78d0)" style="fill: none; stroke: #808080; stroke-width: 1.5"/>
    <path d="M 421.894 153.76822 
L 421.894 122.913202 
" clip-path="url(#p774ebd78d0)" style="fill: none; stroke: #808080; stroke-width: 1.5"/>
    <path d="M 486.209 160.811339 
L 486.209 120.236675 
" clip-path="url(#p774ebd78d0)" style="fill: none; stroke: #808080; stroke-width: 1.5"/>
    <path d="M 550.524 163.757761 
L 550.524 125.482445 
" clip-path="url(#p774ebd78d0)" style="fill: none; stroke: #808080; stroke-width: 1.5"/>
    <path d="M 614.839 169.368864 
L 614.839 120.682832 
" clip-path="url(#p774ebd78d0)" style="fill: none; stroke: #808080; stroke-width: 1.5"/>
    <path d="M 679.154 170.555467 
L 679.154 126.258651 
" clip-path="url(#p774ebd78d0)" style="fill: none; stroke: #808080; stroke-width: 1.5"/>
   </g>
   <g id="line2d_38">
    <defs>
     <path id="mbd46d084bd" d="M 5 0 
L -5 -0 
" style="stroke: #808080"/>
    </defs>
    <g clip-path="url(#p774ebd78d0)">
     <use xlink:href="#mbd46d084bd" x="164.634" y="109.243063" style="fill: #808080; stroke: #808080"/>
     <use xlink:href="#mbd46d084bd" x="228.949" y="122.642376" style="fill: #808080; stroke: #808080"/>
     <use xlink:href="#mbd46d084bd" x="293.264" y="137.967378" style="fill: #808080; stroke: #808080"/>
     <use xlink:href="#mbd46d084bd" x="357.579" y="145.967791" style="fill: #808080; stroke: #808080"/>
     <use xlink:href="#mbd46d084bd" x="421.894" y="153.76822" style="fill: #808080; stroke: #808080"/>
     <use xlink:href="#mbd46d084bd" x="486.209" y="160.811339" style="fill: #808080; stroke: #808080"/>
     <use xlink:href="#mbd46d084bd" x="550.524" y="163.757761" style="fill: #808080; stroke: #808080"/>
     <use xlink:href="#mbd46d084bd" x="614.839" y="169.368864" style="fill: #808080; stroke: #808080"/>
     <use xlink:href="#mbd46d084bd" x="679.154" y="170.555467" style="fill: #808080; stroke: #808080"/>
    </g>
   </g>
   <g id="line2d_39">
    <g clip-path="url(#p774ebd78d0)">
     <use xlink:href="#mbd46d084bd" x="164.634" y="79.836013" style="fill: #808080; stroke: #808080"/>
     <use xlink:href="#mbd46d084bd" x="228.949" y="95.611721" style="fill: #808080; stroke: #808080"/>
     <use xlink:href="#mbd46d084bd" x="293.264" y="103.742662" style="fill: #808080; stroke: #808080"/>
     <use xlink:href="#mbd46d084bd" x="357.579" y="112.358486" style="fill: #808080; stroke: #808080"/>
     <use xlink:href="#mbd46d084bd" x="421.894" y="122.913202" style="fill: #808080; stroke: #808080"/>
     <use xlink:href="#mbd46d084bd" x="486.209" y="120.236675" style="fill: #808080; stroke: #808080"/>
     <use xlink:href="#mbd46d084bd" x="550.524" y="125.482445" style="fill: #808080; stroke: #808080"/>
     <use xlink:href="#mbd46d084bd" x="614.839" y="120.682832" style="fill: #808080; stroke: #808080"/>
     <use xlink:href="#mbd46d084bd" x="679.154" y="126.258651" style="fill: #808080; stroke: #808080"/>
    </g>
   </g>
   <g id="line2d_40">
    <path d="M 164.634 94.539538 
L 228.949 109.127048 
L 293.264 120.85502 
L 357.579 129.163138 
L 421.894 138.340711 
L 486.209 140.524007 
L 550.524 144.620103 
L 614.839 145.025848 
L 679.154 148.407059 
" clip-path="url(#p774ebd78d0)" style="fill: none; stroke: #000000; stroke-width: 1.5; stroke-linecap: square"/>
    <defs>
     <path id="m5eeb1097df" d="M 0 3 
C 0.795609 3 1.55874 2.683901 2.12132 2.12132 
C 2.683901 1.55874 3 0.795609 3 0 
C 3 -0.795609 2.683901 -1.55874 2.12132 -2.12132 
C 1.55874 -2.683901 0.795609 -3 0 -3 
C -0.795609 -3 -1.55874 -2.683901 -2.12132 -2.12132 
C -2.683901 -1.55874 -3 -0.795609 -3 0 
C -3 0.795609 -2.683901 1.55874 -2.12132 2.12132 
C -1.55874 2.683901 -0.795609 3 0 3 
z
" style="stroke: #000000"/>
    </defs>
    <g clip-path="url(#p774ebd78d0)">
     <use xlink:href="#m5eeb1097df" x="164.634" y="94.539538" style="stroke: #000000"/>
     <use xlink:href="#m5eeb1097df" x="228.949" y="109.127048" style="stroke: #000000"/>
     <use xlink:href="#m5eeb1097df" x="293.264" y="120.85502" style="stroke: #000000"/>
     <use xlink:href="#m5eeb1097df" x="357.579" y="129.163138" style="stroke: #000000"/>
     <use xlink:href="#m5eeb1097df" x="421.894" y="138.340711" style="stroke: #000000"/>
     <use xlink:href="#m5eeb1097df" x="486.209" y="140.524007" style="stroke: #000000"/>
     <use xlink:href="#m5eeb1097df" x="550.524" y="144.620103" style="stroke: #000000"/>
     <use xlink:href="#m5eeb1097df" x="614.839" y="145.025848" style="stroke: #000000"/>
     <use xlink:href="#m5eeb1097df" x="679.154" y="148.407059" style="stroke: #000000"/>
    </g>
   </g>
   <g id="patch_3">
    <path d="M 138.908 291.016877 
L 138.908 20.52 
" style="fill: none; stroke: #000000; stroke-width: 0.8; stroke-linejoin: miter; stroke-linecap: square"/>
   </g>
   <g id="patch_4">
    <path d="M 704.88 291.016877 
L 704.88 20.52 
" style="fill: none; stroke: #000000; stroke-width: 0.8; stroke-linejoin: miter; stroke-linecap: square"/>
   </g>
   <g id="patch_5">
    <path d="M 138.908 291.016877 
L 704.88 291.016877 
" style="fill: none; stroke: #000000; stroke-width: 0.8; stroke-linejoin: miter; stroke-linecap: square"/>
   </g>
   <g id="patch_6">
    <path d="M 138.908 20.52 
L 704.88 20.52 
" style="fill: none; stroke: #000000; stroke-width: 0.8; stroke-linejoin: miter; stroke-linecap: square"/>
   </g>
   <g id="legend_1">
    <g id="patch_7">
     <path d="M 148.708 284.016877 
L 286.258 284.016877 
Q 289.058 284.016877 289.058 281.216877 
L 289.058 241.518127 
Q 289.058 238.718127 286.258 238.718127 
L 148.708 238.718127 
Q 145.908 238.718127 145.908 241.518127 
L 145.908 281.216877 
Q 145.908 284.016877 148.708 284.016877 
z
" style="fill: #ffffff; opacity: 0.8; stroke: #cccccc; stroke-linejoin: miter"/>
    </g>
    <g id="line2d_41">
     <path d="M 151.508 250.055939 
L 165.508 250.055939 
L 179.508 250.055939 
" style="fill: none; stroke-dasharray: 11.1,4.8; stroke-dashoffset: 0; stroke: #0000ff; stroke-width: 3"/>
    </g>
    <g id="text_20">
     <!-- No clustering -->
     <g transform="translate(190.708 254.955939) scale(0.14 -0.14)">
      <defs>
       <path id="DejaVuSans-4e" d="M 628 4666 
L 1478 4666 
L 3547 763 
L 3547 4666 
L 4159 4666 
L 4159 0 
L 3309 0 
L 1241 3903 
L 1241 0 
L 628 0 
L 628 4666 
z
" transform="scale(0.015625)"/>
      </defs>
      <use xlink:href="#DejaVuSans-4e"/>
      <use xlink:href="#DejaVuSans-6f" x="74.804688"/>
      <use xlink:href="#DejaVuSans-20" x="135.986328"/>
      <use xlink:href="#DejaVuSans-63" x="167.773438"/>
      <use xlink:href="#DejaVuSans-6c" x="222.753906"/>
      <use xlink:href="#DejaVuSans-75" x="250.537109"/>
      <use xlink:href="#DejaVuSans-73" x="313.916016"/>
      <use xlink:href="#DejaVuSans-74" x="366.015625"/>
      <use xlink:href="#DejaVuSans-65" x="405.224609"/>
      <use xlink:href="#DejaVuSans-72" x="466.748047"/>
      <use xlink:href="#DejaVuSans-69" x="507.861328"/>
      <use xlink:href="#DejaVuSans-6e" x="535.644531"/>
      <use xlink:href="#DejaVuSans-67" x="599.023438"/>
     </g>
    </g>
    <g id="LineCollection_2">
     <path d="M 165.508 277.605314 
L 165.508 263.605314 
" style="fill: none; stroke: #808080; stroke-width: 1.5"/>
    </g>
    <g id="line2d_42">
     <g>
      <use xlink:href="#mbd46d084bd" x="165.508" y="277.605314" style="fill: #808080; stroke: #808080"/>
     </g>
    </g>
    <g id="line2d_43">
     <g>
      <use xlink:href="#mbd46d084bd" x="165.508" y="263.605314" style="fill: #808080; stroke: #808080"/>
     </g>
    </g>
    <g id="line2d_44">
     <path d="M 151.508 270.605314 
L 179.508 270.605314 
" style="fill: none; stroke: #000000; stroke-width: 1.5; stroke-linecap: square"/>
    </g>
    <g id="line2d_45">
     <g>
      <use xlink:href="#m5eeb1097df" x="165.508" y="270.605314" style="stroke: #000000"/>
     </g>
    </g>
    <g id="text_21">
     <!-- Clustering -->
     <g transform="translate(190.708 275.505314) scale(0.14 -0.14)">
      <use xlink:href="#DejaVuSans-43"/>
      <use xlink:href="#DejaVuSans-6c" x="69.824219"/>
      <use xlink:href="#DejaVuSans-75" x="97.607422"/>
      <use xlink:href="#DejaVuSans-73" x="160.986328"/>
      <use xlink:href="#DejaVuSans-74" x="213.085938"/>
      <use xlink:href="#DejaVuSans-65" x="252.294922"/>
      <use xlink:href="#DejaVuSans-72" x="313.818359"/>
      <use xlink:href="#DejaVuSans-69" x="354.931641"/>
      <use xlink:href="#DejaVuSans-6e" x="382.714844"/>
      <use xlink:href="#DejaVuSans-67" x="446.09375"/>
     </g>
    </g>
   </g>
  </g>
 </g>
 <defs>
  <clipPath id="p774ebd78d0">
   <rect x="138.908" y="20.52" width="565.972" height="270.496877"/>
  </clipPath>
 </defs>
</svg>
